G04*
G04 #@! TF.GenerationSoftware,Altium Limited,Altium Designer,19.0.15 (446)*
G04*
G04 Layer_Physical_Order=1*
G04 Layer_Color=196*
%FSLAX25Y25*%
%MOIN*%
G70*
G01*
G75*
%ADD13C,0.01000*%
%ADD14C,0.00800*%
%ADD16R,0.04921X0.05906*%
G04:AMPARAMS|DCode=17|XSize=35mil|YSize=50mil|CornerRadius=4.38mil|HoleSize=0mil|Usage=FLASHONLY|Rotation=0.000|XOffset=0mil|YOffset=0mil|HoleType=Round|Shape=RoundedRectangle|*
%AMROUNDEDRECTD17*
21,1,0.03500,0.04125,0,0,0.0*
21,1,0.02625,0.05000,0,0,0.0*
1,1,0.00875,0.01313,-0.02063*
1,1,0.00875,-0.01313,-0.02063*
1,1,0.00875,-0.01313,0.02063*
1,1,0.00875,0.01313,0.02063*
%
%ADD17ROUNDEDRECTD17*%
%ADD24C,0.01500*%
%ADD25R,0.06200X0.06200*%
%ADD26C,0.06200*%
%ADD27C,0.06300*%
%ADD28R,0.06300X0.06300*%
%ADD29C,0.05000*%
D13*
X75000Y7000D02*
X79100D01*
X75000D02*
Y11100D01*
Y2900D02*
Y7000D01*
X70900D02*
X75000D01*
X38634Y95400D02*
Y99353D01*
Y95400D02*
X42094D01*
X38634Y91447D02*
Y95400D01*
X23500Y85500D02*
X27000D01*
X23500D02*
Y89000D01*
Y82000D02*
Y85500D01*
X20000D02*
X23500D01*
X20000Y60500D02*
Y64650D01*
Y60500D02*
X24150D01*
X20000Y56350D02*
Y60500D01*
X15850D02*
X20000D01*
D14*
X79200Y97000D02*
G03*
X79200Y97000I-4200J0D01*
G01*
Y87000D02*
G03*
X73642Y90974I-4200J0D01*
G01*
X71026Y88358D02*
G03*
X79200Y87000I3974J-1358D01*
G01*
Y77000D02*
G03*
X73642Y80974I-4200J0D01*
G01*
X71026Y78358D02*
G03*
X79200Y77000I3974J-1358D01*
G01*
Y67000D02*
G03*
X73743Y71007I-4200J0D01*
G01*
X71061Y68457D02*
G03*
X79200Y67000I3939J-1457D01*
G01*
Y57000D02*
G03*
X73642Y60974I-4200J0D01*
G01*
X71026Y58358D02*
G03*
X79200Y57000I3974J-1358D01*
G01*
Y47000D02*
G03*
X71229Y48850I-4200J0D01*
G01*
Y45150D02*
G03*
X79200Y47000I3771J1850D01*
G01*
Y37000D02*
G03*
X71229Y38850I-4200J0D01*
G01*
Y35150D02*
G03*
X79200Y37000I3771J1850D01*
G01*
Y27000D02*
G03*
X70803Y26850I-4200J0D01*
G01*
X72769Y23442D02*
G03*
X79200Y27000I2231J3558D01*
G01*
X73475Y13087D02*
G03*
X79200Y17000I1526J3913D01*
G01*
X71771Y23150D02*
G03*
X72769Y23442I0J1850D01*
G01*
X71771Y23150D02*
G03*
X72769Y23442I0J1850D01*
G01*
X71771Y12150D02*
G03*
X73080Y12692I0J1850D01*
G01*
X71771Y12150D02*
G03*
X73080Y12692I0J1850D01*
G01*
X79200Y17000D02*
G03*
X70960Y15850I-4200J0D01*
G01*
X40216Y88463D02*
G03*
X38679Y90000I-1538J0D01*
G01*
X36239Y99753D02*
G03*
X35808Y100429I-1739J-631D01*
G01*
X33430Y102808D02*
G03*
X32121Y103350I-1308J-1308D01*
G01*
X33430Y102808D02*
G03*
X32121Y103350I-1308J-1308D01*
G01*
X36239Y99753D02*
G03*
X35808Y100429I-1739J-631D01*
G01*
X28516Y89903D02*
G03*
X27516Y88463I538J-1441D01*
G01*
X43692Y78576D02*
G03*
X43150Y77268I1308J-1308D01*
G01*
X34516Y84338D02*
G03*
X36054Y82800I1538J0D01*
G01*
X43692Y78576D02*
G03*
X43150Y77268I1308J-1308D01*
G01*
X31679Y82800D02*
G03*
X33216Y84338I0J1538D01*
G01*
X27516D02*
G03*
X29054Y82800I1538J0D01*
G01*
X28692Y73442D02*
G03*
X28150Y72134I1308J-1308D01*
G01*
X28692Y73442D02*
G03*
X28150Y72134I1308J-1308D01*
G01*
X34250Y60500D02*
G03*
X31850Y64326I-4250J0D01*
G01*
X34116Y59442D02*
G03*
X34250Y60500I-4116J1058D01*
G01*
X15000Y103350D02*
G03*
X13692Y102808I0J-1850D01*
G01*
X15000Y103350D02*
G03*
X13692Y102808I0J-1850D01*
G01*
X13200Y95500D02*
G03*
X12974Y96858I-4200J0D01*
G01*
X10358Y99474D02*
G03*
X13200Y95500I-1358J-3974D01*
G01*
X27400Y85500D02*
G03*
X27400Y85500I-3900J0D01*
G01*
X28150Y64326D02*
G03*
X27147Y57350I1850J-3826D01*
G01*
X25000D02*
G03*
X23692Y56808I0J-1850D01*
G01*
X25000Y57350D02*
G03*
X23692Y56808I0J-1850D01*
G01*
X24550Y60500D02*
G03*
X24550Y60500I-4550J0D01*
G01*
X49232Y38650D02*
G03*
X50540Y39192I0J1850D01*
G01*
X49232Y38650D02*
G03*
X50540Y39192I0J1850D01*
G01*
X33366Y43650D02*
G03*
X34674Y44192I0J1850D01*
G01*
X33366Y43650D02*
G03*
X34674Y44192I0J1850D01*
G01*
X33826Y42350D02*
G03*
X32853Y43650I-3826J-1850D01*
G01*
X33240Y37750D02*
G03*
X33826Y38650I-3240J2750D01*
G01*
X34250Y30500D02*
G03*
X32337Y34050I-4250J0D01*
G01*
X34250Y23636D02*
G03*
X35500Y23150I1250J1364D01*
G01*
X34250Y23636D02*
G03*
X35500Y23150I1250J1364D01*
G01*
X34014Y29103D02*
G03*
X34250Y30500I-4014J1397D01*
G01*
X27147Y53650D02*
G03*
X27147Y47350I2853J-3150D01*
G01*
X24250Y50500D02*
G03*
X24014Y51897I-4250J0D01*
G01*
X25000Y47350D02*
G03*
X23692Y46808I0J-1850D01*
G01*
X25000Y47350D02*
G03*
X23692Y46808I0J-1850D01*
G01*
X27147Y43650D02*
G03*
X26760Y37750I2853J-3150D01*
G01*
X25400D02*
G03*
X24092Y37208I0J-1850D01*
G01*
X25400Y37750D02*
G03*
X24092Y37208I0J-1850D01*
G01*
X24250Y40500D02*
G03*
X24014Y41897I-4250J0D01*
G01*
X21397Y54514D02*
G03*
X24250Y50500I-1397J-4014D01*
G01*
X21397Y44514D02*
G03*
X24250Y40500I-1397J-4014D01*
G01*
X21397Y34514D02*
G03*
X24250Y30500I-1397J-4014D01*
G01*
X27663Y34050D02*
G03*
X31397Y26486I2337J-3550D01*
G01*
X24250Y30500D02*
G03*
X24014Y31897I-4250J0D01*
G01*
X25192Y12692D02*
G03*
X26500Y12150I1308J1308D01*
G01*
X25192Y12692D02*
G03*
X26500Y12150I1308J1308D01*
G01*
X24014Y19103D02*
G03*
X24250Y20500I-4014J1397D01*
G01*
D02*
G03*
X21397Y16486I-4250J0D01*
G01*
X91944Y103961D02*
X93961Y101944D01*
X89116Y103961D02*
X93961Y99116D01*
X86287Y103961D02*
X93961Y96287D01*
X80630Y103961D02*
X93961Y90630D01*
X83459Y103961D02*
X93961Y93459D01*
X79185Y86640D02*
X93961Y101417D01*
X77802Y103961D02*
X93961Y87802D01*
X74974Y103961D02*
X93961Y84974D01*
X79107Y97877D02*
X85191Y103961D01*
X78701Y88985D02*
X93677Y103961D01*
X75251Y91193D02*
X88020Y103961D01*
X77361Y90474D02*
X90848Y103961D01*
X76498Y100924D02*
X79534Y103961D01*
X78164Y99762D02*
X82363Y103961D01*
X74817Y92804D02*
X76850Y90771D01*
X78771Y88850D02*
X93961Y73660D01*
X79017Y85775D02*
X93961Y70831D01*
X78420Y74562D02*
X93961Y90103D01*
X77239Y70553D02*
X93961Y87275D01*
X78629Y69114D02*
X93961Y84446D01*
X77952Y84012D02*
X93961Y68003D01*
X76169Y82966D02*
X93961Y65175D01*
X79199Y96907D02*
X93961Y82145D01*
X78069Y79868D02*
X93961Y95760D01*
X76350Y80977D02*
X93961Y98588D01*
X78069Y79868D02*
X93961Y95760D01*
X78539Y94739D02*
X93961Y79317D01*
X79069Y78040D02*
X93961Y92931D01*
X77091Y93358D02*
X93961Y76488D01*
X72145Y103961D02*
X74907Y101199D01*
X73757Y101012D02*
X76706Y103961D01*
X69317D02*
X72738Y100539D01*
X67694Y97778D02*
X73878Y103961D01*
X71509Y93107D02*
X72238Y93836D01*
X72923Y91693D02*
X74123Y92893D01*
X67694Y97098D02*
X73775Y91017D01*
X67694Y100606D02*
X71049Y103961D01*
X66488D02*
X71358Y99091D01*
X60573Y102053D02*
X67694D01*
X66313D02*
X68221Y103961D01*
X68681Y95936D02*
X70988Y98243D01*
X70095Y94521D02*
X71076Y95503D01*
X67694Y99926D02*
X70804Y96817D01*
X67694Y96922D02*
X73642Y90974D01*
X67561Y87056D02*
X73642Y80974D01*
X73001Y83306D02*
X75108Y81199D01*
X73580Y81036D02*
X75360Y82815D01*
X72166Y82450D02*
X73015Y83299D01*
X67561Y89159D02*
X68893Y90491D01*
X67923Y86693D02*
X70307Y89077D01*
X67561Y91823D02*
X71026Y88358D01*
X67561Y91575D02*
X70966Y88169D01*
X69338Y85279D02*
X70807Y86749D01*
X70752Y83864D02*
X71526Y84639D01*
X67561Y88746D02*
X71307Y85000D01*
X79198Y66854D02*
X93961Y81618D01*
X79199Y77108D02*
X93961Y62346D01*
X75058Y71200D02*
X77438Y73580D01*
X75022Y72800D02*
X77322Y70500D01*
X71476Y73275D02*
X72132Y73931D01*
X72890Y71860D02*
X73960Y72931D01*
X70061Y74689D02*
X71023Y75650D01*
X71476Y73275D02*
X72132Y73931D01*
X72066Y62551D02*
X72886Y63371D01*
X73385Y63123D02*
X75320Y61188D01*
X70651Y63965D02*
X71447Y64761D01*
X77970Y59970D02*
X93961Y75961D01*
X78616Y74863D02*
X93961Y59518D01*
X76197Y61026D02*
X93961Y78789D01*
X77217Y73433D02*
X93961Y56689D01*
X79026Y58197D02*
X93961Y73132D01*
X79062Y65931D02*
X93961Y51032D01*
X78734Y55077D02*
X93961Y70304D01*
X78500Y69322D02*
X93961Y53861D01*
X78553Y49239D02*
X93961Y64647D01*
X73480Y61137D02*
X75146Y62802D01*
X77114Y50629D02*
X93961Y67476D01*
X74854Y51197D02*
X76923Y53266D01*
X67694Y81689D02*
X71026Y78358D01*
X68647Y76103D02*
X70964Y78420D01*
X67694Y77299D02*
X73931Y71062D01*
X67694Y77056D02*
X73743Y71007D01*
X67694Y71642D02*
X71014Y68323D01*
X67694Y68814D02*
X71123Y65385D01*
X67694Y71823D02*
X71061Y68457D01*
X67694Y77979D02*
X69550Y79834D01*
X67694Y80127D02*
X70800Y77022D01*
X67331Y82053D02*
X67694Y81689D01*
Y80807D02*
X68135Y81248D01*
X67694Y69494D02*
X68859Y70658D01*
X67823Y66793D02*
X70274Y69244D01*
X67694Y69494D02*
X68859Y70658D01*
X67694Y66922D02*
X73642Y60974D01*
X65437Y63947D02*
X71026Y58358D01*
X61247Y63947D02*
X74093Y51101D01*
X58419Y63947D02*
X72219Y50147D01*
X67561Y49561D02*
X72030Y54030D01*
X69678Y48850D02*
X73803Y52974D01*
X66224Y51053D02*
X70974Y55803D01*
X69237Y65379D02*
X70800Y66943D01*
X64075Y63947D02*
X70806Y57217D01*
X57739Y51053D02*
X68035Y61349D01*
X55590Y63947D02*
X70687Y48850D01*
X63396Y51053D02*
X70863Y58520D01*
X67561Y49148D02*
X67859Y48850D01*
X60567Y51053D02*
X69449Y59935D01*
X63484Y102053D02*
X65392Y103961D01*
X63660D02*
X65568Y102053D01*
X60656D02*
X62564Y103961D01*
X60831D02*
X62739Y102053D01*
X67694Y96922D02*
Y102053D01*
X65437Y93947D02*
X67331Y92053D01*
X60573Y93947D02*
X65437D01*
X62360D02*
X64254Y92053D01*
X59427Y93947D02*
Y102053D01*
X60573Y93947D02*
Y102053D01*
X59427Y100824D02*
X60573Y101970D01*
X59427Y99709D02*
X60573Y98562D01*
X59427Y96880D02*
X60573Y95734D01*
X59427Y95167D02*
X60573Y96313D01*
X59427Y97995D02*
X60573Y99142D01*
X67331Y92053D02*
X67561Y91823D01*
X67083Y92053D02*
X67561Y91575D01*
X64798Y92053D02*
X66064Y93319D01*
X65188Y93947D02*
X67083Y92053D01*
X67561Y87056D02*
Y91823D01*
X63875Y83947D02*
X65769Y82053D01*
X60439Y92053D02*
X67331D01*
X61970D02*
X63864Y93947D01*
X60439Y83947D02*
Y92053D01*
X59427Y94052D02*
X61426Y92053D01*
X59293Y83947D02*
Y92053D01*
Y85700D02*
X60439Y84554D01*
X61046Y83947D01*
X59293Y89376D02*
X60439Y90523D01*
X58003Y103961D02*
X60573Y101391D01*
X59141Y92053D02*
X61036Y93947D01*
X52306Y102053D02*
X59427D01*
X57827D02*
X59735Y103961D01*
X56313Y92053D02*
X58207Y93947D01*
X56703D02*
X58597Y92053D01*
X54430Y93947D02*
X59427D01*
X54999Y102053D02*
X56907Y103961D01*
X55174D02*
X57083Y102053D01*
X52346Y103961D02*
X54254Y102053D01*
X49518Y103961D02*
X52306Y101173D01*
X53484Y92053D02*
X55379Y93947D01*
X54152Y93670D02*
X55769Y92053D01*
X52306Y97056D02*
Y102053D01*
X59293Y88529D02*
X60439Y87382D01*
X59293Y86548D02*
X60439Y87694D01*
X52535Y92053D02*
X59293D01*
Y91357D02*
X60439Y90211D01*
X57626Y82053D02*
X60439Y84866D01*
X58218Y83947D02*
X60573Y81592D01*
X54296Y83947D02*
X59293D01*
X52535Y92053D02*
X54430Y93947D01*
X52172Y91689D02*
X52535Y92053D01*
X51324Y90841D02*
X52172Y89993D01*
Y87056D02*
Y91689D01*
X52401Y82053D02*
X54296Y83947D01*
X55389D02*
X57284Y82053D01*
X49909Y89427D02*
X52172Y87165D01*
X65437Y83947D02*
X67331Y82053D01*
X66112D02*
X66721Y82662D01*
X60439Y83947D02*
X65437D01*
X60573Y82053D02*
X67331D01*
X67694Y77056D02*
Y81689D01*
X65389Y73947D02*
X67284Y72053D01*
X60573Y73947D02*
X65570D01*
X64597Y72053D02*
X66031Y73487D01*
X61046Y83947D02*
X62941Y82053D01*
X63283D02*
X65178Y83947D01*
X59427Y78196D02*
X60573Y79343D01*
Y73947D02*
Y82053D01*
X59427Y75368D02*
X60573Y76514D01*
X62561Y73947D02*
X64455Y72053D01*
X59427Y77081D02*
X60573Y75935D01*
X67465Y72053D02*
X67694Y71823D01*
X67284Y72053D02*
X67694Y71642D01*
X60573Y72053D02*
X67465D01*
X65570Y73947D02*
X67465Y72053D01*
X67694Y66922D02*
Y71823D01*
X67561Y48850D02*
Y51053D01*
X60439D02*
X67561D01*
X61769Y72053D02*
X63663Y73947D01*
X60573Y63947D02*
Y72053D01*
X59427Y74253D02*
X61627Y72053D01*
X59427Y66883D02*
X60573Y68029D01*
X59427Y64054D02*
X60573Y65201D01*
Y63947D02*
X65437D01*
X59427Y65768D02*
X60573Y64621D01*
X59427Y81025D02*
X62349Y83947D01*
X59427Y73947D02*
Y82053D01*
X52401D02*
X59427D01*
Y79910D02*
X60573Y78763D01*
X56949Y73947D02*
X59427D01*
X58940Y72053D02*
X60834Y73947D01*
X56929Y73922D02*
X58798Y72053D01*
X53428Y83080D02*
X54455Y82053D01*
X54798D02*
X56692Y83947D01*
X52014Y81665D02*
X52306Y81374D01*
Y74520D02*
Y81957D01*
X55521Y72502D02*
X55970Y72053D01*
X56112D02*
X58006Y73947D01*
X50600Y80251D02*
X52306Y78546D01*
X59427Y71424D02*
X60573Y70278D01*
X59427Y69711D02*
X60573Y70858D01*
X59427Y68596D02*
X60573Y67449D01*
X53596Y63113D02*
X65656Y51053D01*
X52182Y61699D02*
X62828Y51053D01*
X54911D02*
X66621Y62763D01*
X50767Y60285D02*
X60439Y50613D01*
X58798Y72053D02*
X59427Y71424D01*
Y63947D02*
Y72053D01*
X55071D02*
X59427D01*
X55071D02*
X56808Y73790D01*
X54430Y63947D02*
X59427D01*
X59293Y49778D02*
X60439Y50925D01*
X52172Y51053D02*
X59293D01*
X78977Y38350D02*
X93961Y53333D01*
X78902Y35446D02*
X93961Y50505D01*
X77339Y53512D02*
X93961Y36890D01*
X76985Y30701D02*
X93961Y47677D01*
X79101Y46093D02*
X93961Y31233D01*
X79193Y27251D02*
X93961Y42020D01*
X78474Y29361D02*
X93961Y44848D01*
X78147Y44219D02*
X93961Y28405D01*
X78051Y64114D02*
X93961Y48204D01*
X79200Y47057D02*
X93961Y61819D01*
X76323Y63014D02*
X93961Y45375D01*
X76040Y41069D02*
X93961Y58990D01*
X79188Y57320D02*
X93961Y42547D01*
X78688Y54991D02*
X93961Y39719D01*
X77868Y40069D02*
X93961Y56162D01*
X79012Y15757D02*
X93961Y30706D01*
Y2039D02*
Y103961D01*
X75404Y32820D02*
X93961Y14263D01*
X77583Y11500D02*
X93961Y27878D01*
X79134Y26261D02*
X93961Y11434D01*
X79500Y10588D02*
X93961Y25049D01*
X78240Y24327D02*
X93961Y8606D01*
X79165Y37544D02*
X93961Y22748D01*
X77762Y20164D02*
X93961Y36363D01*
X76471Y43066D02*
X93961Y25576D01*
X75877Y21107D02*
X93961Y39191D01*
X78757Y35123D02*
X93961Y19920D01*
X78924Y18497D02*
X93961Y33534D01*
X77458Y33594D02*
X93961Y17091D01*
X68730Y45150D02*
X73123Y40757D01*
X68164Y38850D02*
X72761Y43447D01*
X73704Y43005D02*
X75544Y41165D01*
X72562Y40420D02*
X74943Y42800D01*
X67561Y48850D02*
X71229D01*
X67561Y45150D02*
X71229D01*
X66538Y40053D02*
X71371Y44886D01*
X67561Y43492D02*
X71594Y39458D01*
X67694Y38850D02*
X71229D01*
X70992D02*
X71580Y39437D01*
X67694Y35150D02*
X71229D01*
X75217Y52806D02*
X93961Y34062D01*
X74641Y31185D02*
X76554Y33098D01*
X70245Y35150D02*
X74261Y31134D01*
X67694Y27067D02*
X73650Y33023D01*
X67694Y32724D02*
X70121Y35150D01*
X67694Y34872D02*
X72327Y30240D01*
X66852Y29053D02*
X71931Y34132D01*
X67694Y32044D02*
X71123Y28615D01*
X67694Y26850D02*
X70803D01*
X70306D02*
X70815Y27360D01*
X64963Y31947D02*
X70060Y26850D01*
X79500Y7760D02*
X93961Y22221D01*
X79500Y4931D02*
X93961Y19392D01*
X76615Y23123D02*
X93961Y5777D01*
X79126Y17784D02*
X93961Y2949D01*
X79500Y2500D02*
Y11500D01*
Y6096D02*
X83557Y2039D01*
X74755Y11500D02*
X76243Y12988D01*
X75584Y12841D02*
X76925Y11500D01*
X73986Y22924D02*
X75784Y21126D01*
X73080Y12692D02*
X73475Y13087D01*
X72989Y12607D02*
X74096Y11500D01*
X82265Y2039D02*
X93961Y13735D01*
X85093Y2039D02*
X93961Y10907D01*
X78822Y15259D02*
X92042Y2039D01*
X79436D02*
X93961Y16564D01*
X90750Y2039D02*
X93961Y5250D01*
X93578Y2039D02*
X93961Y2422D01*
X87922Y2039D02*
X93961Y8078D01*
X79500Y3268D02*
X80729Y2039D01*
X79500Y8925D02*
X86386Y2039D01*
X77439Y2500D02*
X77900Y2039D01*
X77573Y13680D02*
X89214Y2039D01*
X74611Y2500D02*
X75072Y2039D01*
X76608D02*
X77069Y2500D01*
X73779Y2039D02*
X74240Y2500D01*
X70932Y23150D02*
X73259Y20822D01*
X67791Y15850D02*
X74749Y22807D01*
X67694Y23150D02*
X71771D01*
X68103D02*
X71680Y19573D01*
X67165Y18053D02*
X72358Y23246D01*
X67478Y20947D02*
X70841Y17584D01*
X67694Y15850D02*
X70960D01*
X70620D02*
X70893Y16123D01*
X67694Y12150D02*
X71771D01*
X71926Y11500D02*
X73502Y13076D01*
X70500Y11500D02*
X79500D01*
X70618Y12150D02*
X71268Y11500D01*
X70951Y2039D02*
X71412Y2500D01*
X71783D02*
X72243Y2039D01*
X70500Y2500D02*
X79500D01*
X67790Y12150D02*
X70500Y9439D01*
Y2500D02*
Y11500D01*
X67164Y9947D02*
X70500Y6611D01*
X62466Y2039D02*
X70500Y10074D01*
X65294Y2039D02*
X70500Y7245D01*
X68123Y2039D02*
X70500Y4417D01*
X64335Y9947D02*
X70500Y3783D01*
X67561Y43904D02*
X68807Y45150D01*
X67561Y42947D02*
Y45150D01*
X60439Y42947D02*
X67561D01*
X65276D02*
X69374Y38850D01*
X63710Y40053D02*
X66604Y42947D01*
X67694Y38850D02*
Y40053D01*
X60573D02*
X67694D01*
X62448Y42947D02*
X65342Y40053D01*
X59293Y48931D02*
X60439Y47784D01*
Y42947D02*
Y51053D01*
X59293Y46950D02*
X60439Y48096D01*
X59293Y43274D02*
X62514Y40053D01*
X60881D02*
X63776Y42947D01*
X60573Y39745D02*
X60881Y40053D01*
X59427Y38598D02*
X60573Y39745D01*
X67694Y31947D02*
Y35150D01*
X64023Y29053D02*
X66918Y31947D01*
X60573D02*
X67694D01*
X59306D02*
X62200Y29053D01*
X61195D02*
X64089Y31947D01*
X62134D02*
X65029Y29053D01*
X60573D02*
X67694D01*
X59427Y31947D02*
Y40053D01*
X60573Y31947D02*
Y40053D01*
X59427Y37483D02*
X60573Y36337D01*
X59427Y35770D02*
X60573Y36916D01*
X59427Y32941D02*
X60573Y34088D01*
X59427Y20947D02*
Y29053D01*
Y34655D02*
X60573Y33508D01*
X59293Y46102D02*
X60439Y44956D01*
X59293Y42947D02*
Y51053D01*
Y44121D02*
X60439Y45268D01*
X56791Y42947D02*
X60573Y39165D01*
X54296Y42947D02*
X59293D01*
X58053Y40053D02*
X60947Y42947D01*
X52306Y40053D02*
X59427D01*
X52396D02*
X55290Y42947D01*
X55224Y40053D02*
X58119Y42947D01*
X52172Y46056D02*
Y51053D01*
X50540Y39192D02*
X54296Y42947D01*
X52715Y41366D02*
X54029Y40053D01*
X54129Y42781D02*
X56857Y40053D01*
X51301Y39952D02*
X52306Y38948D01*
X56477Y31947D02*
X59372Y29053D01*
X58367D02*
X61261Y31947D01*
X52306D02*
X59427D01*
X52710Y29053D02*
X55604Y31947D01*
X53649D02*
X56544Y29053D01*
X55538D02*
X58433Y31947D01*
X52306Y29053D02*
X59427D01*
X52306Y37750D02*
Y40053D01*
X51546Y34050D02*
X52306Y33291D01*
X49712Y38713D02*
X50675Y37750D01*
X50093D02*
X52306Y39962D01*
Y28649D02*
X52710Y29053D01*
X52306Y26850D02*
Y29053D01*
Y31947D02*
Y34050D01*
X67694Y26850D02*
Y29053D01*
Y20947D02*
Y23150D01*
X60573Y28431D02*
X61195Y29053D01*
X67694Y21410D02*
X69434Y23150D01*
X67232Y20947D02*
X67694Y21410D01*
X61821Y20947D02*
X64715Y18053D01*
X60573Y20947D02*
X67694D01*
X61509Y18053D02*
X64403Y20947D01*
X59427Y28998D02*
X60573Y27852D01*
Y20947D02*
Y29053D01*
X59427Y27285D02*
X60573Y28431D01*
X59427Y26170D02*
X60573Y25023D01*
X59427Y23341D02*
X60573Y22195D01*
X59427Y21628D02*
X60573Y22774D01*
X59427Y24456D02*
X60573Y25603D01*
X67694Y17902D02*
X69746Y15850D01*
X67694Y9947D02*
Y12150D01*
X60573Y18053D02*
X67694D01*
Y15850D02*
Y18053D01*
Y10097D02*
X69748Y12150D01*
X61507Y9947D02*
X69415Y2039D01*
X60573Y9947D02*
X67694D01*
X64337Y18053D02*
X67232Y20947D01*
X64649D02*
X67544Y18053D01*
X59427Y9947D02*
Y18053D01*
X60573Y9947D02*
Y18053D01*
X59427Y14856D02*
X60573Y13709D01*
X59637Y2039D02*
X67545Y9947D01*
X59427Y17684D02*
X60573Y16538D01*
X58680Y18053D02*
X61575Y20947D01*
X58992D02*
X61887Y18053D01*
X52306Y20947D02*
X59427D01*
X56164D02*
X59058Y18053D01*
X59427Y17684D01*
Y15971D02*
X60573Y17117D01*
X52306Y18053D02*
X59427D01*
X52306Y20947D02*
Y23150D01*
X53335Y20947D02*
X56230Y18053D01*
X50507Y26850D02*
X52306Y28649D01*
X51133Y23150D02*
X52306Y21977D01*
X53023Y18053D02*
X55918Y20947D01*
X55852Y18053D02*
X58746Y20947D01*
X52306Y15850D02*
Y18053D01*
X59427Y13142D02*
X60573Y14289D01*
X59427Y10314D02*
X60573Y11461D01*
X53022Y9947D02*
X60930Y2039D01*
X53980D02*
X61888Y9947D01*
X56809Y2039D02*
X64717Y9947D01*
X58679D02*
X66587Y2039D01*
X55850Y9947D02*
X63758Y2039D01*
X59427Y12027D02*
X60573Y10881D01*
X52306Y9947D02*
Y12150D01*
X50821Y15850D02*
X52306Y17335D01*
X50819Y12150D02*
X52306Y10663D01*
Y9947D02*
X59427D01*
X59060D02*
X59427Y10314D01*
X51152Y2039D02*
X59060Y9947D01*
X46689Y103961D02*
X52306Y98345D01*
X43861Y103961D02*
X51536Y96286D01*
X42494Y95205D02*
X51250Y103961D01*
X42494Y92377D02*
X54079Y103961D01*
X42494Y98034D02*
X48422Y103961D01*
X42494Y99670D02*
X48707Y93458D01*
X41032Y103961D02*
X50122Y94872D01*
X42494Y96842D02*
X47293Y92043D01*
X38557Y99753D02*
X42765Y103961D01*
X41385Y99753D02*
X45593Y103961D01*
X38204D02*
X42412Y99753D01*
X36350Y91047D02*
X42494D01*
Y99753D01*
Y94014D02*
X45879Y90629D01*
X40216Y87270D02*
X52306Y99359D01*
X40216Y84966D02*
X52306Y97056D01*
X42494Y91185D02*
X44465Y89215D01*
X48495Y88013D02*
X50812Y85696D01*
X39804Y91047D02*
X43051Y87801D01*
X37289Y90000D02*
X38337Y91047D01*
X39715Y89598D02*
X41165Y91047D01*
X36350Y90032D02*
Y91047D01*
X36975D02*
X38023Y90000D01*
X40216Y84966D02*
Y88463D01*
X36382Y90000D02*
X38679D01*
X36072Y100096D02*
X39936Y103961D01*
X35375D02*
X39584Y99753D01*
X2039Y103961D02*
X93961D01*
X34692Y101545D02*
X37108Y103961D01*
X33430Y102808D02*
X35808Y100429D01*
X32547Y103961D02*
X36755Y99753D01*
X30840Y103350D02*
X31451Y103961D01*
X33269Y102951D02*
X34280Y103961D01*
X28012Y103350D02*
X28623Y103961D01*
X29719D02*
X30330Y103350D01*
X15000D02*
X32121D01*
X36239Y99753D02*
X42494D01*
X31850Y71368D02*
X52172Y91689D01*
X31850Y70419D02*
X52172Y90740D01*
X33216Y87934D02*
X34308Y86842D01*
X33216Y84338D02*
Y87934D01*
X31850Y67590D02*
X52172Y87912D01*
X26805Y99453D02*
X31552D01*
X28516Y89903D02*
Y91347D01*
X15766Y99650D02*
X31355D01*
X26805Y91347D02*
X28516D01*
X28190D02*
X28516Y91021D01*
X13200Y89367D02*
X28908Y73659D01*
X47081Y86599D02*
X49398Y84282D01*
X45667Y85184D02*
X47984Y82868D01*
X44253Y83770D02*
X46569Y81453D01*
X43692Y78576D02*
X52172Y87056D01*
X46850Y76501D02*
X52306Y81957D01*
X42838Y82356D02*
X45155Y80039D01*
X41424Y80942D02*
X43741Y78625D01*
X40216Y87807D02*
X41636Y86386D01*
X36054Y82800D02*
X38050D01*
X34516Y84338D02*
Y86663D01*
X40010Y79527D02*
X43150Y76387D01*
X36737Y82800D02*
X37394Y82144D01*
X49186Y78837D02*
X52306Y75717D01*
X47771Y77423D02*
X51490Y73704D01*
X46850Y74105D02*
X52306Y79560D01*
X46850Y71276D02*
X52306Y76732D01*
X46850Y72687D02*
X48662Y70876D01*
X46850Y69064D02*
X52306Y74520D01*
X46850Y75516D02*
X50076Y72290D01*
X46850Y69064D02*
Y76501D01*
X43150Y68475D02*
Y77268D01*
X38596Y78113D02*
X43150Y73559D01*
X37181Y76699D02*
X43150Y70731D01*
X46850Y69859D02*
X47247Y69462D01*
X35767Y75285D02*
X42863Y68189D01*
X34353Y73871D02*
X41449Y66774D01*
X33216Y85927D02*
X34220Y86930D01*
X33216Y86321D02*
X34516Y85021D01*
X33056Y83653D02*
X35979Y80730D01*
X31080Y82800D02*
X34565Y79315D01*
X32939Y72456D02*
X40035Y65360D01*
X28692Y73442D02*
X38050Y82800D01*
X29054D02*
X31679D01*
X27086Y83966D02*
X33151Y77901D01*
X25842Y82382D02*
X31737Y76487D01*
X23785Y81610D02*
X30323Y75073D01*
X33206Y63290D02*
X43150Y73233D01*
X34152Y61407D02*
X43150Y70405D01*
X31850Y64762D02*
X43150Y76062D01*
X31850Y70717D02*
X38621Y63946D01*
X31850Y67888D02*
X37207Y62532D01*
X34116Y59442D02*
X43150Y68475D01*
X31850Y65060D02*
X35792Y61118D01*
X20761Y64986D02*
X28168Y72394D01*
X31850Y64326D02*
Y71368D01*
X2039Y54750D02*
X30089Y82800D01*
X2039Y51921D02*
X34516Y84398D01*
X22737Y64134D02*
X28150Y69547D01*
X25183Y103350D02*
X25794Y103961D01*
X26890D02*
X27501Y103350D01*
X19526D02*
X20137Y103961D01*
X24062D02*
X24673Y103350D01*
X25544Y99650D02*
X26805Y98389D01*
X22716Y99650D02*
X26805Y95560D01*
X21233Y103961D02*
X21844Y103350D01*
X22355D02*
X22966Y103961D01*
X16698Y103350D02*
X17309Y103961D01*
X18405D02*
X19016Y103350D01*
X15576Y103961D02*
X16187Y103350D01*
X12990Y96813D02*
X15826Y99650D01*
X12974Y96858D02*
X15766Y99650D01*
X19887D02*
X26805Y92732D01*
Y91347D02*
Y99453D01*
X17059Y99650D02*
X27641Y89068D01*
X13200Y85710D02*
X26805Y99315D01*
X22384Y89237D02*
X26805Y93658D01*
X25053Y89077D02*
X27323Y91347D01*
X13200Y82881D02*
X26805Y96487D01*
X14998Y98882D02*
X24656Y89225D01*
X13584Y97468D02*
X21966Y89086D01*
X12868Y93863D02*
X18655Y99650D01*
X13200Y88538D02*
X24312Y99650D01*
X13176Y95048D02*
X20382Y87842D01*
X13200Y81300D02*
Y89700D01*
X12748Y103961D02*
X13801Y102908D01*
X10079Y99559D02*
X14480Y103961D01*
X9920D02*
X12382Y101498D01*
X7091Y103961D02*
X10968Y100084D01*
X10358Y99474D02*
X13692Y102808D01*
X6716Y99024D02*
X11652Y103961D01*
X2039Y97176D02*
X8824Y103961D01*
X2039Y100005D02*
X5995Y103961D01*
X4263D02*
X8548Y99676D01*
X2039Y102833D02*
X3167Y103961D01*
X2039Y103356D02*
X6512Y98884D01*
X2039Y97699D02*
X4844Y94894D01*
X2039Y94348D02*
X5475Y97784D01*
X2039Y100528D02*
X5225Y97342D01*
X11533Y89700D02*
X21483Y99650D01*
X12383Y93012D02*
X19610Y85785D01*
X10842Y91725D02*
X12867Y89700D01*
X8705D02*
X10637Y91632D01*
X12867Y89700D02*
X13200Y89367D01*
X4800Y89700D02*
X13200D01*
X2039Y92042D02*
X4800Y89282D01*
X2039Y88691D02*
X5955Y92607D01*
X2039Y91519D02*
X4941Y94421D01*
X2039Y94871D02*
X7210Y89700D01*
X5877D02*
X7687Y91510D01*
X8394Y91344D02*
X10038Y89700D01*
X4800Y81300D02*
Y89700D01*
X27225Y86656D02*
X27516Y86364D01*
Y84338D02*
Y88463D01*
X26630Y87826D02*
X27541Y88737D01*
X28150Y64326D02*
Y72134D01*
X24545Y60285D02*
X25908Y61648D01*
X24035Y62603D02*
X28150Y66719D01*
X24512Y61084D02*
X25810Y59786D01*
X24145Y58623D02*
X25418Y57350D01*
X25000D02*
X27147D01*
X24301Y57213D02*
X26041Y58953D01*
X25766Y53650D02*
X27147D01*
X26289D02*
X26728Y53212D01*
X24014Y51897D02*
X25766Y53650D01*
X22925Y57015D02*
X23412Y56528D01*
X21397Y54514D02*
X23692Y56808D01*
X21041Y56071D02*
X21997Y55114D01*
X18852Y54592D02*
X20215Y55955D01*
X17720Y56562D02*
X19556Y54727D01*
X13200Y86538D02*
X28150Y71588D01*
X13200Y83710D02*
X28150Y68760D01*
X2039Y68892D02*
X19763Y86616D01*
X2039Y66064D02*
X19923Y83947D01*
X4800Y81300D02*
X13200D01*
X12782D02*
X28150Y65932D01*
X2039Y71720D02*
X11619Y81300D01*
X2039Y86386D02*
X4800Y83625D01*
X2039Y83034D02*
X4800Y85795D01*
X2039Y89214D02*
X4800Y86453D01*
X2039Y85863D02*
X4800Y88623D01*
X2039Y77377D02*
X5962Y81300D01*
X2039Y74549D02*
X8790Y81300D01*
X2039Y80206D02*
X4800Y82967D01*
X2039Y63235D02*
X21174Y82370D01*
X2039Y60407D02*
X23241Y81609D01*
X2039Y83557D02*
X20584Y65012D01*
X2039Y57578D02*
X27846Y83385D01*
X9953Y81300D02*
X27395Y63858D01*
X7125Y81300D02*
X26142Y62283D01*
X2039Y75072D02*
X15571Y61541D01*
X2039Y72243D02*
X16062Y58220D01*
X2039Y80729D02*
X18123Y64645D01*
X2039Y77900D02*
X16515Y63425D01*
X2039Y66587D02*
X16207Y52418D01*
X2039Y69415D02*
X17510Y53944D01*
X49353Y58871D02*
X57171Y51053D01*
X43379Y42350D02*
X64977Y63947D01*
X40551Y42350D02*
X62148Y63947D01*
X40551Y42350D02*
X62148Y63947D01*
X47939Y57456D02*
X54343Y51053D01*
X46525Y56042D02*
X52172Y50395D01*
X45110Y54628D02*
X52172Y47567D01*
X46208Y42350D02*
X52172Y48314D01*
X43696Y53214D02*
X51513Y45397D01*
X42282Y51800D02*
X50099Y43983D01*
X40868Y50385D02*
X48685Y42569D01*
X39454Y48971D02*
X46075Y42350D01*
X48466D02*
X52172Y46056D01*
X47265Y37750D02*
X48165Y38650D01*
X48718Y34050D02*
X53715Y29053D01*
X46946Y38650D02*
X47846Y37750D01*
X44850Y26850D02*
X52050Y34050D01*
X42022Y26850D02*
X49222Y34050D01*
X43061D02*
X50261Y26850D01*
X40233Y34050D02*
X47433Y26850D01*
X41289Y38650D02*
X42189Y37750D01*
X41608D02*
X42508Y38650D01*
X38461D02*
X39361Y37750D01*
X38779D02*
X39679Y38650D01*
X44118D02*
X45018Y37750D01*
X44436D02*
X45336Y38650D01*
X39193Y26850D02*
X46393Y34050D01*
X37723Y42350D02*
X59320Y63947D01*
X38039Y47557D02*
X43246Y42350D01*
X34674Y44192D02*
X54430Y63947D01*
X34894Y42350D02*
X56491Y63947D01*
X35211Y44728D02*
X37589Y42350D01*
X36625Y46143D02*
X40418Y42350D01*
X33826D02*
X48466D01*
X33459Y43652D02*
X34761Y42350D01*
X2039Y49093D02*
X35772Y82826D01*
X33111Y43395D02*
X33366Y43650D01*
X32853D02*
X33366D01*
X33826Y38650D02*
X49232D01*
X35951Y37750D02*
X36851Y38650D01*
X33240Y37750D02*
X52306D01*
X32337Y34050D02*
X52306D01*
X34901Y28215D02*
X40736Y34050D01*
X37404D02*
X44604Y26850D01*
X34576Y34050D02*
X41776Y26850D01*
X35633Y38650D02*
X36533Y37750D01*
X35951D02*
X36851Y38650D01*
X33576Y38204D02*
X34023Y38650D01*
X33444Y38010D02*
X33704Y37750D01*
X33671Y32642D02*
X35079Y34050D01*
X47678Y26850D02*
X52776Y31947D01*
X48304Y23150D02*
X53401Y18053D01*
X45889Y34050D02*
X52306Y27634D01*
X36266Y26850D02*
X52306D01*
X45476Y23150D02*
X52306Y16320D01*
X47992Y15850D02*
X53089Y20947D01*
X35500Y23150D02*
X52306D01*
X45164Y15850D02*
X52306Y22992D01*
X36365Y26850D02*
X43565Y34050D01*
X34250Y16250D02*
Y23636D01*
X42335Y15850D02*
X49635Y23150D01*
X42647D02*
X49947Y15850D01*
X34250Y21907D02*
X35493Y23150D01*
X45162Y12150D02*
X55273Y2039D01*
X47991Y12150D02*
X58101Y2039D01*
X39838D02*
X49949Y12150D01*
X42334D02*
X52444Y2039D01*
X45495D02*
X53403Y9947D01*
X48324Y2039D02*
X56232Y9947D01*
X42667Y2039D02*
X52306Y11678D01*
X39507Y15850D02*
X46807Y23150D01*
X39819D02*
X47119Y15850D01*
X36678D02*
X43978Y23150D01*
X36990D02*
X44291Y15850D01*
X37010Y2039D02*
X47121Y12150D01*
X39505D02*
X49616Y2039D01*
X36677Y12150D02*
X46788Y2039D01*
X34249Y30391D02*
X37908Y34050D01*
X34069Y31729D02*
X38947Y26850D01*
X34014Y29103D02*
X36266Y26850D01*
X33850Y15850D02*
X41150Y23150D01*
X34250Y23062D02*
X41462Y15850D01*
X34250Y20234D02*
X38634Y15850D01*
X34250Y19078D02*
X38322Y23150D01*
X31436Y24750D02*
X32285Y25599D01*
X30954Y26358D02*
X32562Y24750D01*
X31397Y26486D02*
X33134Y24750D01*
X26866Y16250D02*
X34250D01*
X32577D02*
X32977Y15850D01*
X25750Y24750D02*
X33134D01*
X31020Y12150D02*
X41131Y2039D01*
X34181D02*
X44292Y12150D01*
X27266Y15850D02*
X52306D01*
X26500Y12150D02*
X52306D01*
X31353Y2039D02*
X41464Y12150D01*
X33848D02*
X43959Y2039D01*
X2039D02*
X93961D01*
X34250Y17405D02*
X35805Y15850D01*
X28192Y12150D02*
X38302Y2039D01*
X17852Y16833D02*
X32645Y2039D01*
X21114Y16399D02*
X35474Y2039D01*
X25696D02*
X35807Y12150D01*
X28524Y2039D02*
X38635Y12150D01*
X22868Y2039D02*
X32978Y12150D01*
X24614Y52497D02*
X25824Y51288D01*
X24152Y51407D02*
X26395Y53650D01*
X24227Y50056D02*
X26933Y47350D01*
X25752D02*
X26496Y48094D01*
X25766Y43650D02*
X27147D01*
X25000Y47350D02*
X27147D01*
X25371Y43255D02*
X26208Y42418D01*
X23444Y48010D02*
X24259Y47195D01*
X21918Y46707D02*
X22755Y45871D01*
X24014Y41897D02*
X25766Y43650D01*
X21397Y44514D02*
X23692Y46808D01*
X24238Y40179D02*
X26003Y41944D01*
X24069Y41729D02*
X25777Y40020D01*
X24162Y37275D02*
X25987Y39100D01*
X25400Y37750D02*
X26760D01*
X24113Y31569D02*
X26594Y34050D01*
X24014Y31897D02*
X26166Y34050D01*
X23974Y38995D02*
X25227Y37742D01*
X22820Y37320D02*
X23512Y36628D01*
X21397Y34514D02*
X24092Y37208D01*
X20954Y36358D02*
X22098Y35214D01*
X2039Y60930D02*
X18495Y44474D01*
X2039Y40608D02*
X17897Y56465D01*
X2039Y52444D02*
X19741Y34742D01*
X20312Y44739D02*
X25762Y50188D01*
X19520Y46277D02*
X21229Y44568D01*
X2039Y43436D02*
X16366Y57763D01*
X2039Y58101D02*
X16820Y43320D01*
X2039Y63758D02*
X15777Y50020D01*
X2039Y46265D02*
X15514Y59739D01*
X2039Y37779D02*
X15908Y51648D01*
X2039Y34951D02*
X16041Y48953D01*
X2039Y55273D02*
X15858Y41454D01*
X2039Y29294D02*
X19093Y46348D01*
X2039Y41131D02*
X18643Y24527D01*
X2039Y49616D02*
X17628Y34027D01*
X2039Y32122D02*
X17210Y47294D01*
X18556Y34497D02*
X20321Y36262D01*
X2039Y20809D02*
X17987Y36757D01*
X2039Y43959D02*
X15758Y30240D01*
X2039Y26466D02*
X15762Y40188D01*
X2039Y46788D02*
X16277Y32550D01*
X2039Y2039D02*
Y103961D01*
Y23637D02*
X16496Y38094D01*
X2039Y35474D02*
X15899Y21614D01*
X2039Y38302D02*
X16917Y23425D01*
X26166Y34050D02*
X27663D01*
X26128Y34012D02*
X26820Y33320D01*
X24242Y30242D02*
X29734Y24750D01*
X25779D02*
X27858Y26829D01*
X28608Y24750D02*
X30109Y26251D01*
X23527Y28128D02*
X26905Y24750D01*
X22285Y24084D02*
X26416Y28215D01*
X24714Y32598D02*
X25858Y31454D01*
X23576Y28204D02*
X25752Y30379D01*
X22285Y24084D02*
X26416Y28215D01*
X23671Y22642D02*
X25750Y24721D01*
X24249Y20391D02*
X25750Y21892D01*
X22050Y26777D02*
X25750Y23077D01*
X29748Y16250D02*
X30148Y15850D01*
X31022D02*
X31422Y16250D01*
X26920D02*
X27320Y15850D01*
X28193D02*
X28593Y16250D01*
X26866D02*
X27266Y15850D01*
X24027Y19142D02*
X25750Y17420D01*
Y17366D02*
Y24750D01*
X23963Y22035D02*
X25750Y20248D01*
X24901Y18215D02*
X25750Y19064D01*
X24014Y19103D02*
X25750Y17366D01*
X21397Y16486D02*
X25192Y12692D01*
X20121Y24748D02*
X22296Y26924D01*
X19740Y26258D02*
X21535Y24463D01*
X2039Y9495D02*
X18931Y26387D01*
X8725Y2039D02*
X22285Y15599D01*
X11554Y2039D02*
X23699Y14185D01*
X5897Y2039D02*
X20109Y16251D01*
X2039Y15152D02*
X15987Y29100D01*
X2039Y12323D02*
X17105Y27389D01*
X2039Y32645D02*
X16333Y18352D01*
X2039Y17980D02*
X16003Y31944D01*
X2039Y3838D02*
X16416Y18215D01*
X2039Y3838D02*
X16416Y18215D01*
X2039Y6667D02*
X15752Y20379D01*
X2039Y24160D02*
X24160Y2039D01*
X2039Y21332D02*
X21332Y2039D01*
X2039Y29817D02*
X29817Y2039D01*
X2039Y26989D02*
X26989Y2039D01*
X17211D02*
X27322Y12150D01*
X20039Y2039D02*
X30150Y12150D01*
X14382Y2039D02*
X25113Y12770D01*
X2039Y18503D02*
X18503Y2039D01*
X3069D02*
X17858Y16829D01*
X2039Y15675D02*
X15675Y2039D01*
X2039Y12846D02*
X12846Y2039D01*
X2039Y7190D02*
X7190Y2039D01*
X2039Y4361D02*
X4361Y2039D01*
X2039Y10018D02*
X10018Y2039D01*
D16*
X55866Y98000D02*
D03*
X64134D02*
D03*
X55732Y88000D02*
D03*
X64000D02*
D03*
X55866Y78000D02*
D03*
X64134D02*
D03*
X55866Y68000D02*
D03*
X64134D02*
D03*
X55732Y47000D02*
D03*
X64000D02*
D03*
X55866Y36000D02*
D03*
X64134D02*
D03*
X55866Y25000D02*
D03*
X64134D02*
D03*
X55866Y14000D02*
D03*
X64134D02*
D03*
X38634Y95400D02*
D03*
X30366D02*
D03*
D17*
X37366Y86400D02*
D03*
X30366D02*
D03*
D24*
X32121Y101500D02*
X34500Y99121D01*
X15000Y101500D02*
X32121D01*
X9000Y95500D02*
X15000Y101500D01*
X34500Y89266D02*
Y99121D01*
Y89266D02*
X35616Y88150D01*
X36366D01*
X37366Y87150D01*
Y86400D02*
Y87150D01*
X30000Y72134D02*
X53663Y95797D01*
X30000Y60500D02*
Y72134D01*
X53663Y95797D02*
X54155D01*
X45000Y77268D02*
X53530Y85797D01*
X45000Y67709D02*
Y77268D01*
X32791Y55500D02*
X45000Y67709D01*
X33366Y45500D02*
X55866Y68000D01*
X25000Y45500D02*
X33366D01*
X54155Y95797D02*
X55866Y97508D01*
Y98000D01*
X53530Y85797D02*
X54022D01*
X55732Y87508D01*
Y88000D01*
X25000Y55500D02*
X32791D01*
X20000Y50500D02*
X25000Y55500D01*
X30902Y50500D02*
X55500Y75098D01*
X30000Y50500D02*
X30902D01*
X55500Y75098D02*
Y77634D01*
X55866Y78000D01*
X20000Y40500D02*
X25000Y45500D01*
X49232Y40500D02*
X55732Y47000D01*
X30000Y40500D02*
X49232D01*
X25400Y35900D02*
X55866D01*
X20000Y30500D02*
X25400Y35900D01*
X55866D02*
Y36000D01*
X30000Y30500D02*
X35500Y25000D01*
X55866D01*
X20000Y20500D02*
X26500Y14000D01*
X55866D01*
X74771Y17000D02*
X75000D01*
X71771Y14000D02*
X74771Y17000D01*
X64134Y14000D02*
X71771D01*
X73771Y27000D02*
X75000D01*
X71771Y25000D02*
X73771Y27000D01*
X64134Y25000D02*
X71771D01*
X65134Y37000D02*
X75000D01*
X64134Y36000D02*
X65134Y37000D01*
X64000Y47000D02*
X75000D01*
X66203Y65797D02*
X75000Y57000D01*
X65845Y65797D02*
X66203D01*
X64134Y67508D02*
X65845Y65797D01*
X64134Y67508D02*
Y68000D01*
X75000Y67000D02*
Y67134D01*
X66337Y75797D02*
X75000Y67134D01*
X65845Y75797D02*
X66337D01*
X64134Y77508D02*
X65845Y75797D01*
X64134Y77508D02*
Y78000D01*
X64000Y88000D02*
X75000Y77000D01*
X64134Y97508D02*
Y98000D01*
Y97508D02*
X65845Y95797D01*
X66203D01*
X75000Y87000D01*
X30366Y86400D02*
Y95400D01*
D25*
X9000Y85500D02*
D03*
X75000Y7000D02*
D03*
D26*
X9000Y95500D02*
D03*
X75000Y27000D02*
D03*
Y97000D02*
D03*
Y87000D02*
D03*
Y77000D02*
D03*
Y67000D02*
D03*
Y57000D02*
D03*
Y47000D02*
D03*
Y37000D02*
D03*
Y17000D02*
D03*
D27*
X20000Y60500D02*
D03*
X30000D02*
D03*
X20000Y50500D02*
D03*
X30000D02*
D03*
X20000Y40500D02*
D03*
X30000D02*
D03*
X20000Y30500D02*
D03*
X30000D02*
D03*
X20000Y20500D02*
D03*
D28*
X30000D02*
D03*
D29*
X23500Y85500D02*
D03*
M02*
