G04*
G04 #@! TF.GenerationSoftware,Altium Limited,Altium Designer,19.0.15 (446)*
G04*
G04 Layer_Color=116691*
%FSLAX25Y25*%
%MOIN*%
G70*
G01*
G75*
%ADD11C,0.00787*%
%ADD12C,0.00500*%
%ADD13C,0.01000*%
%ADD15C,0.00700*%
%ADD37C,0.00984*%
D11*
X40768Y93689D02*
X51004D01*
X40768Y67311D02*
X51004D01*
Y93689D01*
X40768Y67311D02*
Y93689D01*
D12*
X54300Y95500D02*
Y102500D01*
X39800Y95500D02*
Y102500D01*
X54300D01*
X39800Y95500D02*
X54300D01*
Y58000D02*
Y65000D01*
X39800Y58000D02*
Y65000D01*
X54300D01*
X39800Y58000D02*
X54300D01*
D13*
X65335Y27261D02*
Y31260D01*
X62669Y27261D01*
Y31260D01*
X59337Y27261D02*
X60670D01*
X61336Y27928D01*
Y29261D01*
X60670Y29927D01*
X59337D01*
X58670Y29261D01*
Y28594D01*
X61336D01*
X57337Y29927D02*
X54672Y27261D01*
X56005Y28594D01*
X54672Y29927D01*
X57337Y27261D01*
X53339D02*
X52006D01*
X52672D01*
Y29927D01*
X53339D01*
X49340Y30593D02*
Y29927D01*
X50007D01*
X48674D01*
X49340D01*
Y27928D01*
X48674Y27261D01*
X46008D02*
X44675D01*
X44008Y27928D01*
Y29261D01*
X44675Y29927D01*
X46008D01*
X46674Y29261D01*
Y27928D01*
X46008Y27261D01*
X42676D02*
Y29927D01*
X40676D01*
X40010Y29261D01*
Y27261D01*
X65335Y24061D02*
X68001D01*
Y20063D01*
X65335D01*
X68001Y22062D02*
X66668D01*
X64002Y20063D02*
Y22728D01*
X62003D01*
X61336Y22062D01*
Y20063D01*
X60003Y24061D02*
Y20063D01*
Y22062D01*
X59337Y22728D01*
X58004D01*
X57337Y22062D01*
Y20063D01*
X55338Y22728D02*
X54005D01*
X53339Y22062D01*
Y20063D01*
X55338D01*
X56005Y20729D01*
X55338Y21396D01*
X53339D01*
X52006Y20063D02*
Y22728D01*
X50007D01*
X49340Y22062D01*
Y20063D01*
X45341Y22728D02*
X47341D01*
X48007Y22062D01*
Y20729D01*
X47341Y20063D01*
X45341D01*
X42009D02*
X43342D01*
X44008Y20729D01*
Y22062D01*
X43342Y22728D01*
X42009D01*
X41343Y22062D01*
Y21396D01*
X44008D01*
X37344Y24061D02*
Y20063D01*
X39343D01*
X40010Y20729D01*
Y22062D01*
X39343Y22728D01*
X37344D01*
X65335Y16863D02*
Y12864D01*
X63336D01*
X62669Y13531D01*
Y16196D01*
X63336Y16863D01*
X65335D01*
X61336Y12864D02*
X60003D01*
X60670D01*
Y15530D01*
X61336D01*
X58004Y12864D02*
X56005D01*
X55338Y13531D01*
X56005Y14197D01*
X57337D01*
X58004Y14864D01*
X57337Y15530D01*
X55338D01*
X54005Y11531D02*
Y15530D01*
X52006D01*
X51339Y14864D01*
Y13531D01*
X52006Y12864D01*
X54005D01*
X50007D02*
X48674D01*
X49340D01*
Y16863D01*
X50007D01*
X46008Y15530D02*
X44675D01*
X44008Y14864D01*
Y12864D01*
X46008D01*
X46674Y13531D01*
X46008Y14197D01*
X44008D01*
X42676Y15530D02*
Y13531D01*
X42009Y12864D01*
X40010D01*
Y12198D01*
X40676Y11531D01*
X41343D01*
X40010Y12864D02*
Y15530D01*
X65335Y4333D02*
Y6999D01*
X64002Y8332D01*
X62669Y6999D01*
Y4333D01*
Y6332D01*
X65335D01*
X58670Y8332D02*
Y4333D01*
X60670D01*
X61336Y4999D01*
Y6332D01*
X60670Y6999D01*
X58670D01*
X56671D02*
X55338D01*
X54672Y6332D01*
Y4333D01*
X56671D01*
X57337Y4999D01*
X56671Y5666D01*
X54672D01*
X53339Y3000D02*
Y6999D01*
X51339D01*
X50673Y6332D01*
Y4999D01*
X51339Y4333D01*
X53339D01*
X48674Y7665D02*
Y6999D01*
X49340D01*
X48007D01*
X48674D01*
Y4999D01*
X48007Y4333D01*
X44008D02*
X45341D01*
X46008Y4999D01*
Y6332D01*
X45341Y6999D01*
X44008D01*
X43342Y6332D01*
Y5666D01*
X46008D01*
X42009Y6999D02*
Y4333D01*
Y5666D01*
X41343Y6332D01*
X40676Y6999D01*
X40010D01*
D15*
X60999Y89555D02*
X58666D01*
X57500Y90721D01*
X58666Y91888D01*
X60999D01*
X57500Y93054D02*
X60999D01*
Y94803D01*
X60416Y95387D01*
X59249D01*
X58666Y94803D01*
Y93054D01*
Y94220D02*
X57500Y95387D01*
Y96553D02*
Y97719D01*
Y97136D01*
X60999D01*
X60416Y96553D01*
X35667Y100416D02*
X36251Y100999D01*
X37417D01*
X38000Y100416D01*
Y98083D01*
X37417Y97500D01*
X36251D01*
X35667Y98083D01*
X32168Y97500D02*
X34501D01*
X32168Y99833D01*
Y100416D01*
X32752Y100999D01*
X33918D01*
X34501Y100416D01*
X46967Y56416D02*
X47551Y56999D01*
X48717D01*
X49300Y56416D01*
Y54083D01*
X48717Y53500D01*
X47551D01*
X46967Y54083D01*
X45801Y53500D02*
X44635D01*
X45218D01*
Y56999D01*
X45801Y56416D01*
D37*
X34764Y67311D02*
G03*
X34764Y67311I-492J0D01*
G01*
M02*
