G04*
G04 #@! TF.GenerationSoftware,Altium Limited,Altium Designer,19.0.15 (446)*
G04*
G04 Layer_Physical_Order=2*
G04 Layer_Color=16711680*
%FSLAX25Y25*%
%MOIN*%
G70*
G01*
G75*
%ADD25R,0.06200X0.06200*%
%ADD26C,0.06200*%
%ADD27C,0.06300*%
%ADD28R,0.06300X0.06300*%
%ADD29C,0.05000*%
%ADD30R,0.04000X0.05100*%
%ADD31R,0.10630X0.12992*%
%ADD32R,0.10630X0.03937*%
%ADD33C,0.02000*%
G36*
X94471Y1529D02*
X1529D01*
Y104471D01*
X94471D01*
Y1529D01*
D02*
G37*
%LPC*%
G36*
X54300Y102550D02*
X51800D01*
Y99500D01*
X54300D01*
Y102550D01*
D02*
G37*
G36*
X50800D02*
X48300D01*
Y99500D01*
X50800D01*
Y102550D01*
D02*
G37*
G36*
X75500Y101070D02*
Y97500D01*
X79070D01*
X79066Y97535D01*
X79039Y97712D01*
X79004Y97888D01*
X78961Y98061D01*
X78911Y98233D01*
X78854Y98403D01*
X78789Y98569D01*
X78717Y98733D01*
X78638Y98894D01*
X78552Y99050D01*
X78459Y99203D01*
X78359Y99352D01*
X78254Y99497D01*
X78141Y99636D01*
X78024Y99771D01*
X77900Y99900D01*
X77771Y100024D01*
X77636Y100142D01*
X77496Y100253D01*
X77352Y100359D01*
X77203Y100459D01*
X77051Y100551D01*
X76894Y100638D01*
X76733Y100717D01*
X76569Y100789D01*
X76403Y100854D01*
X76233Y100911D01*
X76061Y100961D01*
X75888Y101004D01*
X75712Y101039D01*
X75535Y101066D01*
X75500Y101070D01*
D02*
G37*
G36*
X74500D02*
X74465Y101066D01*
X74288Y101039D01*
X74112Y101004D01*
X73939Y100961D01*
X73767Y100911D01*
X73597Y100854D01*
X73431Y100789D01*
X73267Y100717D01*
X73106Y100638D01*
X72949Y100551D01*
X72797Y100459D01*
X72648Y100359D01*
X72504Y100253D01*
X72364Y100142D01*
X72229Y100024D01*
X72100Y99900D01*
X71976Y99771D01*
X71859Y99636D01*
X71746Y99497D01*
X71641Y99352D01*
X71541Y99203D01*
X71448Y99050D01*
X71362Y98894D01*
X71283Y98733D01*
X71211Y98569D01*
X71146Y98403D01*
X71089Y98233D01*
X71039Y98061D01*
X70996Y97888D01*
X70961Y97712D01*
X70934Y97535D01*
X70930Y97500D01*
X74500D01*
Y101070D01*
D02*
G37*
G36*
X9500Y99570D02*
Y96000D01*
X13070D01*
X13066Y96035D01*
X13039Y96212D01*
X13004Y96388D01*
X12961Y96561D01*
X12911Y96733D01*
X12854Y96903D01*
X12789Y97069D01*
X12717Y97233D01*
X12638Y97394D01*
X12552Y97550D01*
X12459Y97703D01*
X12359Y97852D01*
X12253Y97996D01*
X12141Y98136D01*
X12024Y98271D01*
X11900Y98400D01*
X11771Y98524D01*
X11636Y98642D01*
X11496Y98753D01*
X11352Y98859D01*
X11203Y98959D01*
X11050Y99051D01*
X10894Y99138D01*
X10733Y99217D01*
X10569Y99289D01*
X10403Y99354D01*
X10233Y99411D01*
X10061Y99461D01*
X9888Y99504D01*
X9712Y99539D01*
X9535Y99566D01*
X9500Y99570D01*
D02*
G37*
G36*
X8500D02*
X8465Y99566D01*
X8288Y99539D01*
X8112Y99504D01*
X7939Y99461D01*
X7767Y99411D01*
X7597Y99354D01*
X7431Y99289D01*
X7267Y99217D01*
X7106Y99138D01*
X6949Y99051D01*
X6797Y98959D01*
X6648Y98859D01*
X6504Y98753D01*
X6364Y98642D01*
X6229Y98524D01*
X6100Y98400D01*
X5976Y98271D01*
X5858Y98136D01*
X5746Y97996D01*
X5641Y97852D01*
X5541Y97703D01*
X5448Y97550D01*
X5362Y97394D01*
X5283Y97233D01*
X5211Y97069D01*
X5146Y96903D01*
X5089Y96733D01*
X5039Y96561D01*
X4996Y96388D01*
X4961Y96212D01*
X4934Y96035D01*
X4930Y96000D01*
X8500D01*
Y99570D01*
D02*
G37*
G36*
X54300Y98500D02*
X51800D01*
Y95450D01*
X54300D01*
Y98500D01*
D02*
G37*
G36*
X50800D02*
X48300D01*
Y95450D01*
X50800D01*
Y98500D01*
D02*
G37*
G36*
X79070Y96500D02*
X75500D01*
Y92930D01*
X75535Y92934D01*
X75712Y92961D01*
X75888Y92996D01*
X76061Y93039D01*
X76233Y93089D01*
X76403Y93146D01*
X76569Y93211D01*
X76733Y93283D01*
X76894Y93362D01*
X77051Y93449D01*
X77203Y93541D01*
X77352Y93641D01*
X77496Y93747D01*
X77636Y93858D01*
X77771Y93976D01*
X77900Y94100D01*
X78024Y94229D01*
X78141Y94364D01*
X78254Y94503D01*
X78359Y94648D01*
X78459Y94797D01*
X78552Y94950D01*
X78638Y95106D01*
X78717Y95267D01*
X78789Y95431D01*
X78854Y95597D01*
X78911Y95767D01*
X78961Y95939D01*
X79004Y96112D01*
X79039Y96288D01*
X79066Y96465D01*
X79070Y96500D01*
D02*
G37*
G36*
X74500D02*
X70930D01*
X70934Y96465D01*
X70961Y96288D01*
X70996Y96112D01*
X71039Y95939D01*
X71089Y95767D01*
X71146Y95597D01*
X71211Y95431D01*
X71283Y95267D01*
X71362Y95106D01*
X71448Y94950D01*
X71541Y94797D01*
X71641Y94648D01*
X71746Y94503D01*
X71859Y94364D01*
X71976Y94229D01*
X72100Y94100D01*
X72229Y93976D01*
X72364Y93858D01*
X72504Y93747D01*
X72648Y93641D01*
X72797Y93541D01*
X72949Y93449D01*
X73106Y93362D01*
X73267Y93283D01*
X73431Y93211D01*
X73597Y93146D01*
X73767Y93089D01*
X73939Y93039D01*
X74112Y92996D01*
X74288Y92961D01*
X74465Y92934D01*
X74500Y92930D01*
Y96500D01*
D02*
G37*
G36*
X13070Y95000D02*
X9500D01*
Y91430D01*
X9535Y91434D01*
X9712Y91461D01*
X9888Y91496D01*
X10061Y91539D01*
X10233Y91589D01*
X10403Y91646D01*
X10569Y91711D01*
X10733Y91783D01*
X10894Y91862D01*
X11050Y91948D01*
X11203Y92041D01*
X11352Y92141D01*
X11496Y92247D01*
X11636Y92358D01*
X11771Y92476D01*
X11900Y92600D01*
X12024Y92729D01*
X12141Y92864D01*
X12253Y93003D01*
X12359Y93148D01*
X12459Y93297D01*
X12552Y93449D01*
X12638Y93606D01*
X12717Y93767D01*
X12789Y93931D01*
X12854Y94097D01*
X12911Y94267D01*
X12961Y94439D01*
X13004Y94612D01*
X13039Y94788D01*
X13066Y94965D01*
X13070Y95000D01*
D02*
G37*
G36*
X8500D02*
X4930D01*
X4934Y94965D01*
X4961Y94788D01*
X4996Y94612D01*
X5039Y94439D01*
X5089Y94267D01*
X5146Y94097D01*
X5211Y93931D01*
X5283Y93767D01*
X5362Y93606D01*
X5448Y93449D01*
X5541Y93297D01*
X5641Y93148D01*
X5746Y93003D01*
X5858Y92864D01*
X5976Y92729D01*
X6100Y92600D01*
X6229Y92476D01*
X6364Y92358D01*
X6504Y92247D01*
X6648Y92141D01*
X6797Y92041D01*
X6949Y91948D01*
X7106Y91862D01*
X7267Y91783D01*
X7431Y91711D01*
X7597Y91646D01*
X7767Y91589D01*
X7939Y91539D01*
X8112Y91496D01*
X8288Y91461D01*
X8465Y91434D01*
X8500Y91430D01*
Y95000D01*
D02*
G37*
G36*
X45700Y102250D02*
X40300D01*
Y97989D01*
X34535Y92224D01*
X28257D01*
Y90851D01*
X27150D01*
X27039Y90848D01*
X26928Y90837D01*
X26818Y90819D01*
X26710Y90793D01*
X26604Y90761D01*
X26499Y90722D01*
X26398Y90676D01*
X26300Y90623D01*
X26205Y90565D01*
X26115Y90500D01*
X26029Y90429D01*
X25948Y90353D01*
X24214Y88619D01*
X24125Y88639D01*
X23970Y88666D01*
X23814Y88686D01*
X23657Y88697D01*
X23500Y88701D01*
X23343Y88697D01*
X23186Y88686D01*
X23030Y88666D01*
X22875Y88639D01*
X22722Y88605D01*
X22571Y88563D01*
X22422Y88514D01*
X22275Y88457D01*
X22131Y88394D01*
X21991Y88323D01*
X21854Y88246D01*
X21722Y88161D01*
X21593Y88071D01*
X21469Y87974D01*
X21350Y87872D01*
X21237Y87763D01*
X21128Y87650D01*
X21026Y87531D01*
X20929Y87407D01*
X20839Y87278D01*
X20754Y87146D01*
X20677Y87009D01*
X20606Y86869D01*
X20543Y86725D01*
X20486Y86578D01*
X20437Y86429D01*
X20395Y86278D01*
X20361Y86124D01*
X20334Y85970D01*
X20314Y85814D01*
X20303Y85657D01*
X20299Y85500D01*
X20303Y85343D01*
X20314Y85186D01*
X20334Y85030D01*
X20361Y84876D01*
X20395Y84722D01*
X20437Y84571D01*
X20486Y84422D01*
X20543Y84275D01*
X20606Y84131D01*
X20677Y83991D01*
X20754Y83854D01*
X20839Y83722D01*
X20929Y83593D01*
X21026Y83469D01*
X21128Y83350D01*
X21237Y83237D01*
X21350Y83128D01*
X21469Y83026D01*
X21593Y82929D01*
X21722Y82838D01*
X21854Y82754D01*
X21991Y82677D01*
X22131Y82606D01*
X22275Y82543D01*
X22422Y82486D01*
X22571Y82437D01*
X22722Y82395D01*
X22875Y82361D01*
X23030Y82334D01*
X23186Y82314D01*
X23343Y82303D01*
X23500Y82299D01*
X23657Y82303D01*
X23814Y82314D01*
X23970Y82334D01*
X24125Y82361D01*
X24278Y82395D01*
X24429Y82437D01*
X24578Y82486D01*
X24725Y82543D01*
X24869Y82606D01*
X25009Y82677D01*
X25146Y82754D01*
X25278Y82838D01*
X25407Y82929D01*
X25531Y83026D01*
X25650Y83128D01*
X25763Y83237D01*
X25872Y83350D01*
X25974Y83469D01*
X26071Y83593D01*
X26162Y83722D01*
X26245Y83854D01*
X26323Y83991D01*
X26394Y84131D01*
X26457Y84275D01*
X26514Y84422D01*
X26563Y84571D01*
X26605Y84722D01*
X26639Y84876D01*
X26666Y85030D01*
X26686Y85186D01*
X26697Y85343D01*
X26701Y85500D01*
X26697Y85657D01*
X26686Y85814D01*
X26666Y85970D01*
X26639Y86124D01*
X26619Y86214D01*
X27855Y87449D01*
X28257D01*
Y86887D01*
X40287D01*
Y92224D01*
X39346D01*
X42872Y95750D01*
X45700D01*
Y102250D01*
D02*
G37*
G36*
X75000Y90801D02*
X74834Y90797D01*
X74669Y90786D01*
X74504Y90768D01*
X74340Y90743D01*
X74177Y90711D01*
X74016Y90671D01*
X73857Y90625D01*
X73700Y90572D01*
X73545Y90512D01*
X73394Y90445D01*
X73245Y90371D01*
X73099Y90292D01*
X72958Y90206D01*
X72820Y90114D01*
X72686Y90016D01*
X72557Y89912D01*
X72432Y89802D01*
X72312Y89688D01*
X72198Y89568D01*
X72088Y89443D01*
X71984Y89314D01*
X71886Y89180D01*
X71794Y89042D01*
X71708Y88901D01*
X71629Y88755D01*
X71555Y88606D01*
X71488Y88455D01*
X71428Y88300D01*
X71375Y88143D01*
X71329Y87984D01*
X71289Y87823D01*
X71257Y87660D01*
X71232Y87496D01*
X71214Y87331D01*
X71203Y87166D01*
X71199Y87000D01*
X71203Y86834D01*
X71214Y86669D01*
X71232Y86504D01*
X71257Y86340D01*
X71289Y86177D01*
X71329Y86016D01*
X71375Y85857D01*
X71428Y85700D01*
X71488Y85545D01*
X71555Y85394D01*
X71629Y85245D01*
X71708Y85100D01*
X71794Y84958D01*
X71886Y84820D01*
X71984Y84686D01*
X72088Y84557D01*
X72198Y84432D01*
X72312Y84312D01*
X72432Y84198D01*
X72557Y84088D01*
X72686Y83985D01*
X72820Y83886D01*
X72958Y83794D01*
X73099Y83708D01*
X73245Y83629D01*
X73394Y83555D01*
X73545Y83488D01*
X73700Y83428D01*
X73857Y83375D01*
X74016Y83329D01*
X74177Y83289D01*
X74340Y83257D01*
X74504Y83232D01*
X74669Y83214D01*
X74834Y83203D01*
X75000Y83199D01*
X75166Y83203D01*
X75331Y83214D01*
X75496Y83232D01*
X75660Y83257D01*
X75823Y83289D01*
X75984Y83329D01*
X76143Y83375D01*
X76300Y83428D01*
X76455Y83488D01*
X76606Y83555D01*
X76755Y83629D01*
X76901Y83708D01*
X77042Y83794D01*
X77180Y83886D01*
X77314Y83985D01*
X77443Y84088D01*
X77568Y84198D01*
X77688Y84312D01*
X77802Y84432D01*
X77912Y84557D01*
X78016Y84686D01*
X78114Y84820D01*
X78206Y84958D01*
X78292Y85100D01*
X78371Y85245D01*
X78445Y85394D01*
X78512Y85545D01*
X78572Y85700D01*
X78625Y85857D01*
X78671Y86016D01*
X78711Y86177D01*
X78743Y86340D01*
X78768Y86504D01*
X78786Y86669D01*
X78797Y86834D01*
X78801Y87000D01*
X78797Y87166D01*
X78786Y87331D01*
X78768Y87496D01*
X78743Y87660D01*
X78711Y87823D01*
X78671Y87984D01*
X78625Y88143D01*
X78572Y88300D01*
X78512Y88455D01*
X78445Y88606D01*
X78371Y88755D01*
X78292Y88901D01*
X78206Y89042D01*
X78114Y89180D01*
X78016Y89314D01*
X77912Y89443D01*
X77802Y89568D01*
X77688Y89688D01*
X77568Y89802D01*
X77443Y89912D01*
X77314Y90016D01*
X77180Y90114D01*
X77042Y90206D01*
X76901Y90292D01*
X76755Y90371D01*
X76606Y90445D01*
X76455Y90512D01*
X76300Y90572D01*
X76143Y90625D01*
X75984Y90671D01*
X75823Y90711D01*
X75660Y90743D01*
X75496Y90768D01*
X75331Y90786D01*
X75166Y90797D01*
X75000Y90801D01*
D02*
G37*
G36*
X63815Y87996D02*
X58000D01*
Y81000D01*
X63815D01*
Y87996D01*
D02*
G37*
G36*
X57000D02*
X51185D01*
Y81000D01*
X57000D01*
Y87996D01*
D02*
G37*
G36*
X40587Y83469D02*
X34772D01*
Y81000D01*
X40587D01*
Y83469D01*
D02*
G37*
G36*
X33772D02*
X27957D01*
Y81000D01*
X33772D01*
Y83469D01*
D02*
G37*
G36*
X40587Y80000D02*
X34772D01*
Y77531D01*
X40587D01*
Y80000D01*
D02*
G37*
G36*
X33772D02*
X27957D01*
Y77531D01*
X33772D01*
Y80000D01*
D02*
G37*
G36*
X75000Y80801D02*
X74834Y80797D01*
X74669Y80786D01*
X74504Y80768D01*
X74340Y80743D01*
X74177Y80711D01*
X74016Y80671D01*
X73857Y80625D01*
X73700Y80572D01*
X73545Y80512D01*
X73394Y80445D01*
X73245Y80371D01*
X73099Y80292D01*
X72958Y80206D01*
X72820Y80114D01*
X72686Y80015D01*
X72557Y79912D01*
X72432Y79802D01*
X72312Y79688D01*
X72198Y79568D01*
X72088Y79443D01*
X71984Y79314D01*
X71886Y79180D01*
X71794Y79042D01*
X71708Y78900D01*
X71629Y78755D01*
X71555Y78606D01*
X71488Y78455D01*
X71428Y78300D01*
X71375Y78143D01*
X71329Y77984D01*
X71289Y77823D01*
X71257Y77660D01*
X71232Y77496D01*
X71214Y77331D01*
X71203Y77166D01*
X71199Y77000D01*
X71203Y76834D01*
X71214Y76669D01*
X71232Y76504D01*
X71257Y76340D01*
X71289Y76177D01*
X71329Y76016D01*
X71375Y75857D01*
X71428Y75700D01*
X71488Y75546D01*
X71555Y75394D01*
X71629Y75245D01*
X71708Y75099D01*
X71794Y74958D01*
X71886Y74820D01*
X71984Y74686D01*
X72088Y74557D01*
X72198Y74432D01*
X72312Y74312D01*
X72432Y74198D01*
X72557Y74088D01*
X72686Y73984D01*
X72820Y73887D01*
X72958Y73794D01*
X73099Y73708D01*
X73245Y73629D01*
X73394Y73555D01*
X73545Y73488D01*
X73700Y73428D01*
X73857Y73375D01*
X74016Y73329D01*
X74177Y73289D01*
X74340Y73257D01*
X74504Y73232D01*
X74669Y73214D01*
X74834Y73203D01*
X75000Y73199D01*
X75166Y73203D01*
X75331Y73214D01*
X75496Y73232D01*
X75660Y73257D01*
X75823Y73289D01*
X75984Y73329D01*
X76143Y73375D01*
X76300Y73428D01*
X76455Y73488D01*
X76606Y73555D01*
X76755Y73629D01*
X76901Y73708D01*
X77042Y73794D01*
X77180Y73887D01*
X77314Y73984D01*
X77443Y74088D01*
X77568Y74198D01*
X77688Y74312D01*
X77802Y74432D01*
X77912Y74557D01*
X78016Y74686D01*
X78114Y74820D01*
X78206Y74958D01*
X78292Y75099D01*
X78371Y75245D01*
X78445Y75394D01*
X78512Y75546D01*
X78572Y75700D01*
X78625Y75857D01*
X78671Y76016D01*
X78711Y76177D01*
X78743Y76340D01*
X78768Y76504D01*
X78786Y76669D01*
X78797Y76834D01*
X78801Y77000D01*
X78797Y77166D01*
X78786Y77331D01*
X78768Y77496D01*
X78743Y77660D01*
X78711Y77823D01*
X78671Y77984D01*
X78625Y78143D01*
X78572Y78300D01*
X78512Y78455D01*
X78445Y78606D01*
X78371Y78755D01*
X78292Y78900D01*
X78206Y79042D01*
X78114Y79180D01*
X78016Y79314D01*
X77912Y79443D01*
X77802Y79568D01*
X77688Y79688D01*
X77568Y79802D01*
X77443Y79912D01*
X77314Y80015D01*
X77180Y80114D01*
X77042Y80206D01*
X76901Y80292D01*
X76755Y80371D01*
X76606Y80445D01*
X76455Y80512D01*
X76300Y80572D01*
X76143Y80625D01*
X75984Y80671D01*
X75823Y80711D01*
X75660Y80743D01*
X75496Y80768D01*
X75331Y80786D01*
X75166Y80797D01*
X75000Y80801D01*
D02*
G37*
G36*
X63815Y80000D02*
X58000D01*
Y73004D01*
X63815D01*
Y80000D01*
D02*
G37*
G36*
X57000D02*
X51185D01*
Y73004D01*
X57000D01*
Y80000D01*
D02*
G37*
G36*
X75000Y70801D02*
X74834Y70797D01*
X74669Y70786D01*
X74504Y70768D01*
X74340Y70743D01*
X74177Y70711D01*
X74016Y70671D01*
X73857Y70625D01*
X73700Y70572D01*
X73545Y70512D01*
X73394Y70445D01*
X73245Y70371D01*
X73099Y70292D01*
X72958Y70206D01*
X72820Y70113D01*
X72686Y70016D01*
X72557Y69912D01*
X72432Y69802D01*
X72312Y69688D01*
X72198Y69568D01*
X72088Y69443D01*
X71984Y69314D01*
X71886Y69180D01*
X71794Y69042D01*
X71708Y68901D01*
X71629Y68755D01*
X71555Y68606D01*
X71488Y68454D01*
X71428Y68300D01*
X71375Y68143D01*
X71329Y67984D01*
X71289Y67823D01*
X71257Y67660D01*
X71232Y67496D01*
X71214Y67331D01*
X71203Y67166D01*
X71199Y67000D01*
X71203Y66834D01*
X71214Y66669D01*
X71232Y66504D01*
X71257Y66340D01*
X71289Y66177D01*
X71329Y66016D01*
X71375Y65857D01*
X71428Y65700D01*
X71488Y65545D01*
X71555Y65394D01*
X71629Y65245D01*
X71708Y65100D01*
X71794Y64958D01*
X71886Y64820D01*
X71984Y64686D01*
X72088Y64557D01*
X72198Y64432D01*
X72312Y64312D01*
X72432Y64198D01*
X72557Y64088D01*
X72686Y63985D01*
X72820Y63886D01*
X72958Y63794D01*
X73099Y63708D01*
X73245Y63629D01*
X73394Y63555D01*
X73545Y63488D01*
X73700Y63428D01*
X73857Y63375D01*
X74016Y63329D01*
X74177Y63289D01*
X74340Y63257D01*
X74504Y63232D01*
X74669Y63214D01*
X74834Y63203D01*
X75000Y63199D01*
X75166Y63203D01*
X75331Y63214D01*
X75496Y63232D01*
X75660Y63257D01*
X75823Y63289D01*
X75984Y63329D01*
X76143Y63375D01*
X76300Y63428D01*
X76455Y63488D01*
X76606Y63555D01*
X76755Y63629D01*
X76901Y63708D01*
X77042Y63794D01*
X77180Y63886D01*
X77314Y63985D01*
X77443Y64088D01*
X77568Y64198D01*
X77688Y64312D01*
X77802Y64432D01*
X77912Y64557D01*
X78016Y64686D01*
X78114Y64820D01*
X78206Y64958D01*
X78292Y65100D01*
X78371Y65245D01*
X78445Y65394D01*
X78512Y65545D01*
X78572Y65700D01*
X78625Y65857D01*
X78671Y66016D01*
X78711Y66177D01*
X78743Y66340D01*
X78768Y66504D01*
X78786Y66669D01*
X78797Y66834D01*
X78801Y67000D01*
X78797Y67166D01*
X78786Y67331D01*
X78768Y67496D01*
X78743Y67660D01*
X78711Y67823D01*
X78671Y67984D01*
X78625Y68143D01*
X78572Y68300D01*
X78512Y68454D01*
X78445Y68606D01*
X78371Y68755D01*
X78292Y68901D01*
X78206Y69042D01*
X78114Y69180D01*
X78016Y69314D01*
X77912Y69443D01*
X77802Y69568D01*
X77688Y69688D01*
X77568Y69802D01*
X77443Y69912D01*
X77314Y70016D01*
X77180Y70113D01*
X77042Y70206D01*
X76901Y70292D01*
X76755Y70371D01*
X76606Y70445D01*
X76455Y70512D01*
X76300Y70572D01*
X76143Y70625D01*
X75984Y70671D01*
X75823Y70711D01*
X75660Y70743D01*
X75496Y70768D01*
X75331Y70786D01*
X75166Y70797D01*
X75000Y70801D01*
D02*
G37*
G36*
X54300Y65050D02*
X51800D01*
Y62000D01*
X54300D01*
Y65050D01*
D02*
G37*
G36*
X50800D02*
X48300D01*
Y62000D01*
X50800D01*
Y65050D01*
D02*
G37*
G36*
X12800Y89300D02*
X5200D01*
Y81700D01*
X10395D01*
X21852Y70242D01*
X21934Y70166D01*
X22020Y70095D01*
X22110Y70031D01*
X22178Y69988D01*
X22205Y69972D01*
X22303Y69919D01*
X22404Y69873D01*
X22508Y69834D01*
X22615Y69802D01*
X22723Y69777D01*
X22833Y69758D01*
X22944Y69748D01*
X23055Y69744D01*
X28257D01*
Y68776D01*
X37818D01*
X41299Y65295D01*
Y64750D01*
X40300D01*
Y58250D01*
X45700D01*
Y64750D01*
X44701D01*
Y66000D01*
X44697Y66111D01*
X44686Y66222D01*
X44668Y66332D01*
X44643Y66440D01*
X44611Y66547D01*
X44571Y66651D01*
X44526Y66752D01*
X44473Y66851D01*
X44451Y66887D01*
X44414Y66945D01*
X44349Y67036D01*
X44279Y67121D01*
X44203Y67203D01*
X40287Y71119D01*
Y74113D01*
X28257D01*
Y73146D01*
X23760D01*
X12800Y84105D01*
Y89300D01*
D02*
G37*
G36*
X54300Y61000D02*
X51800D01*
Y57950D01*
X54300D01*
Y61000D01*
D02*
G37*
G36*
X50800D02*
X48300D01*
Y57950D01*
X50800D01*
Y61000D01*
D02*
G37*
G36*
X30000Y64351D02*
X29832Y64347D01*
X29664Y64336D01*
X29497Y64318D01*
X29331Y64292D01*
X29166Y64260D01*
X29003Y64220D01*
X28842Y64173D01*
X28683Y64119D01*
X28526Y64058D01*
X28372Y63990D01*
X28222Y63916D01*
X28074Y63835D01*
X27931Y63748D01*
X27791Y63655D01*
X27656Y63555D01*
X27525Y63450D01*
X27398Y63339D01*
X27277Y63223D01*
X27161Y63102D01*
X27050Y62975D01*
X26945Y62844D01*
X26845Y62709D01*
X26752Y62569D01*
X26665Y62426D01*
X26584Y62278D01*
X26510Y62128D01*
X26442Y61974D01*
X26381Y61817D01*
X26327Y61658D01*
X26280Y61497D01*
X26240Y61334D01*
X26208Y61169D01*
X26182Y61003D01*
X26164Y60836D01*
X26153Y60668D01*
X26149Y60500D01*
X26153Y60332D01*
X26164Y60164D01*
X26182Y59997D01*
X26208Y59831D01*
X26240Y59667D01*
X26280Y59503D01*
X26327Y59342D01*
X26381Y59183D01*
X26442Y59026D01*
X26510Y58872D01*
X26584Y58722D01*
X26665Y58574D01*
X26752Y58431D01*
X26845Y58291D01*
X26945Y58156D01*
X27050Y58025D01*
X27161Y57898D01*
X27277Y57777D01*
X27398Y57661D01*
X27525Y57550D01*
X27656Y57445D01*
X27791Y57345D01*
X27931Y57252D01*
X28074Y57165D01*
X28222Y57084D01*
X28372Y57010D01*
X28526Y56942D01*
X28683Y56881D01*
X28842Y56827D01*
X29003Y56780D01*
X29166Y56740D01*
X29331Y56708D01*
X29497Y56682D01*
X29664Y56664D01*
X29832Y56653D01*
X30000Y56649D01*
X30168Y56653D01*
X30336Y56664D01*
X30503Y56682D01*
X30669Y56708D01*
X30834Y56740D01*
X30997Y56780D01*
X31158Y56827D01*
X31317Y56881D01*
X31474Y56942D01*
X31628Y57010D01*
X31778Y57084D01*
X31925Y57165D01*
X32069Y57252D01*
X32209Y57345D01*
X32344Y57445D01*
X32475Y57550D01*
X32602Y57661D01*
X32723Y57777D01*
X32839Y57898D01*
X32950Y58025D01*
X33055Y58156D01*
X33154Y58291D01*
X33248Y58431D01*
X33335Y58574D01*
X33416Y58722D01*
X33490Y58872D01*
X33558Y59026D01*
X33619Y59183D01*
X33673Y59342D01*
X33720Y59503D01*
X33760Y59667D01*
X33792Y59831D01*
X33818Y59997D01*
X33836Y60164D01*
X33847Y60332D01*
X33851Y60500D01*
X33847Y60668D01*
X33836Y60836D01*
X33818Y61003D01*
X33792Y61169D01*
X33760Y61334D01*
X33720Y61497D01*
X33673Y61658D01*
X33619Y61817D01*
X33558Y61974D01*
X33490Y62128D01*
X33416Y62278D01*
X33335Y62426D01*
X33248Y62569D01*
X33154Y62709D01*
X33055Y62844D01*
X32950Y62975D01*
X32839Y63102D01*
X32723Y63223D01*
X32602Y63339D01*
X32475Y63450D01*
X32344Y63555D01*
X32209Y63655D01*
X32069Y63748D01*
X31925Y63835D01*
X31778Y63916D01*
X31628Y63990D01*
X31474Y64058D01*
X31317Y64119D01*
X31158Y64173D01*
X30997Y64220D01*
X30834Y64260D01*
X30669Y64292D01*
X30503Y64318D01*
X30336Y64336D01*
X30168Y64347D01*
X30000Y64351D01*
D02*
G37*
G36*
X20000D02*
X19832Y64347D01*
X19664Y64336D01*
X19497Y64318D01*
X19331Y64292D01*
X19166Y64260D01*
X19003Y64220D01*
X18842Y64173D01*
X18683Y64119D01*
X18526Y64058D01*
X18372Y63990D01*
X18222Y63916D01*
X18075Y63835D01*
X17931Y63748D01*
X17791Y63655D01*
X17656Y63555D01*
X17525Y63450D01*
X17398Y63339D01*
X17277Y63223D01*
X17161Y63102D01*
X17050Y62975D01*
X16945Y62844D01*
X16846Y62709D01*
X16752Y62569D01*
X16665Y62426D01*
X16584Y62278D01*
X16510Y62128D01*
X16442Y61974D01*
X16381Y61817D01*
X16327Y61658D01*
X16280Y61497D01*
X16240Y61334D01*
X16208Y61169D01*
X16182Y61003D01*
X16164Y60836D01*
X16153Y60668D01*
X16149Y60500D01*
X16153Y60332D01*
X16164Y60164D01*
X16182Y59997D01*
X16208Y59831D01*
X16240Y59667D01*
X16280Y59503D01*
X16327Y59342D01*
X16381Y59183D01*
X16442Y59026D01*
X16510Y58872D01*
X16584Y58722D01*
X16665Y58574D01*
X16752Y58431D01*
X16846Y58291D01*
X16945Y58156D01*
X17050Y58025D01*
X17161Y57898D01*
X17277Y57777D01*
X17398Y57661D01*
X17525Y57550D01*
X17656Y57445D01*
X17791Y57345D01*
X17931Y57252D01*
X18075Y57165D01*
X18222Y57084D01*
X18372Y57010D01*
X18526Y56942D01*
X18683Y56881D01*
X18842Y56827D01*
X19003Y56780D01*
X19166Y56740D01*
X19331Y56708D01*
X19497Y56682D01*
X19664Y56664D01*
X19832Y56653D01*
X20000Y56649D01*
X20168Y56653D01*
X20336Y56664D01*
X20503Y56682D01*
X20669Y56708D01*
X20833Y56740D01*
X20997Y56780D01*
X21158Y56827D01*
X21317Y56881D01*
X21474Y56942D01*
X21628Y57010D01*
X21778Y57084D01*
X21926Y57165D01*
X22069Y57252D01*
X22209Y57345D01*
X22344Y57445D01*
X22475Y57550D01*
X22602Y57661D01*
X22723Y57777D01*
X22839Y57898D01*
X22950Y58025D01*
X23055Y58156D01*
X23155Y58291D01*
X23248Y58431D01*
X23335Y58574D01*
X23416Y58722D01*
X23490Y58872D01*
X23558Y59026D01*
X23619Y59183D01*
X23673Y59342D01*
X23720Y59503D01*
X23760Y59667D01*
X23792Y59831D01*
X23818Y59997D01*
X23836Y60164D01*
X23847Y60332D01*
X23851Y60500D01*
X23847Y60668D01*
X23836Y60836D01*
X23818Y61003D01*
X23792Y61169D01*
X23760Y61334D01*
X23720Y61497D01*
X23673Y61658D01*
X23619Y61817D01*
X23558Y61974D01*
X23490Y62128D01*
X23416Y62278D01*
X23335Y62426D01*
X23248Y62569D01*
X23155Y62709D01*
X23055Y62844D01*
X22950Y62975D01*
X22839Y63102D01*
X22723Y63223D01*
X22602Y63339D01*
X22475Y63450D01*
X22344Y63555D01*
X22209Y63655D01*
X22069Y63748D01*
X21926Y63835D01*
X21778Y63916D01*
X21628Y63990D01*
X21474Y64058D01*
X21317Y64119D01*
X21158Y64173D01*
X20997Y64220D01*
X20833Y64260D01*
X20669Y64292D01*
X20503Y64318D01*
X20336Y64336D01*
X20168Y64347D01*
X20000Y64351D01*
D02*
G37*
G36*
X75000Y60801D02*
X74834Y60797D01*
X74669Y60786D01*
X74504Y60768D01*
X74340Y60743D01*
X74177Y60711D01*
X74016Y60671D01*
X73857Y60625D01*
X73700Y60572D01*
X73545Y60512D01*
X73394Y60445D01*
X73245Y60371D01*
X73099Y60292D01*
X72958Y60206D01*
X72820Y60114D01*
X72686Y60015D01*
X72557Y59912D01*
X72432Y59802D01*
X72312Y59688D01*
X72198Y59568D01*
X72088Y59443D01*
X71984Y59314D01*
X71886Y59180D01*
X71794Y59042D01*
X71708Y58900D01*
X71629Y58755D01*
X71555Y58606D01*
X71488Y58455D01*
X71428Y58300D01*
X71375Y58143D01*
X71329Y57984D01*
X71289Y57823D01*
X71257Y57660D01*
X71232Y57496D01*
X71214Y57331D01*
X71203Y57166D01*
X71199Y57000D01*
X71203Y56834D01*
X71214Y56669D01*
X71232Y56504D01*
X71257Y56340D01*
X71289Y56177D01*
X71329Y56016D01*
X71375Y55857D01*
X71428Y55700D01*
X71488Y55546D01*
X71555Y55394D01*
X71629Y55245D01*
X71708Y55099D01*
X71794Y54958D01*
X71886Y54820D01*
X71984Y54686D01*
X72088Y54557D01*
X72198Y54432D01*
X72312Y54312D01*
X72432Y54198D01*
X72557Y54088D01*
X72686Y53984D01*
X72820Y53886D01*
X72958Y53794D01*
X73099Y53708D01*
X73245Y53629D01*
X73394Y53555D01*
X73545Y53488D01*
X73700Y53428D01*
X73857Y53375D01*
X74016Y53329D01*
X74177Y53289D01*
X74340Y53257D01*
X74504Y53232D01*
X74669Y53214D01*
X74834Y53203D01*
X75000Y53199D01*
X75166Y53203D01*
X75331Y53214D01*
X75496Y53232D01*
X75660Y53257D01*
X75823Y53289D01*
X75984Y53329D01*
X76143Y53375D01*
X76300Y53428D01*
X76455Y53488D01*
X76606Y53555D01*
X76755Y53629D01*
X76901Y53708D01*
X77042Y53794D01*
X77180Y53886D01*
X77314Y53984D01*
X77443Y54088D01*
X77568Y54198D01*
X77688Y54312D01*
X77802Y54432D01*
X77912Y54557D01*
X78016Y54686D01*
X78114Y54820D01*
X78206Y54958D01*
X78292Y55099D01*
X78371Y55245D01*
X78445Y55394D01*
X78512Y55546D01*
X78572Y55700D01*
X78625Y55857D01*
X78671Y56016D01*
X78711Y56177D01*
X78743Y56340D01*
X78768Y56504D01*
X78786Y56669D01*
X78797Y56834D01*
X78801Y57000D01*
X78797Y57166D01*
X78786Y57331D01*
X78768Y57496D01*
X78743Y57660D01*
X78711Y57823D01*
X78671Y57984D01*
X78625Y58143D01*
X78572Y58300D01*
X78512Y58455D01*
X78445Y58606D01*
X78371Y58755D01*
X78292Y58900D01*
X78206Y59042D01*
X78114Y59180D01*
X78016Y59314D01*
X77912Y59443D01*
X77802Y59568D01*
X77688Y59688D01*
X77568Y59802D01*
X77443Y59912D01*
X77314Y60015D01*
X77180Y60114D01*
X77042Y60206D01*
X76901Y60292D01*
X76755Y60371D01*
X76606Y60445D01*
X76455Y60512D01*
X76300Y60572D01*
X76143Y60625D01*
X75984Y60671D01*
X75823Y60711D01*
X75660Y60743D01*
X75496Y60768D01*
X75331Y60786D01*
X75166Y60797D01*
X75000Y60801D01*
D02*
G37*
G36*
X30000Y54351D02*
X29832Y54347D01*
X29664Y54336D01*
X29497Y54318D01*
X29331Y54292D01*
X29166Y54260D01*
X29003Y54220D01*
X28842Y54173D01*
X28683Y54119D01*
X28526Y54058D01*
X28372Y53990D01*
X28222Y53916D01*
X28074Y53835D01*
X27931Y53748D01*
X27791Y53654D01*
X27656Y53555D01*
X27525Y53450D01*
X27398Y53339D01*
X27277Y53223D01*
X27161Y53102D01*
X27050Y52975D01*
X26945Y52844D01*
X26845Y52709D01*
X26752Y52569D01*
X26665Y52425D01*
X26584Y52278D01*
X26510Y52127D01*
X26442Y51974D01*
X26381Y51817D01*
X26327Y51658D01*
X26280Y51497D01*
X26240Y51333D01*
X26208Y51169D01*
X26182Y51003D01*
X26164Y50836D01*
X26153Y50668D01*
X26149Y50500D01*
X26153Y50332D01*
X26164Y50164D01*
X26182Y49997D01*
X26208Y49831D01*
X26240Y49667D01*
X26280Y49503D01*
X26327Y49342D01*
X26381Y49183D01*
X26442Y49026D01*
X26510Y48873D01*
X26584Y48722D01*
X26665Y48575D01*
X26752Y48431D01*
X26845Y48291D01*
X26945Y48156D01*
X27050Y48025D01*
X27161Y47898D01*
X27277Y47777D01*
X27398Y47661D01*
X27525Y47550D01*
X27656Y47445D01*
X27791Y47346D01*
X27931Y47252D01*
X28074Y47165D01*
X28222Y47084D01*
X28372Y47010D01*
X28526Y46942D01*
X28683Y46881D01*
X28842Y46827D01*
X29003Y46780D01*
X29166Y46740D01*
X29331Y46708D01*
X29497Y46682D01*
X29664Y46664D01*
X29832Y46653D01*
X30000Y46649D01*
X30168Y46653D01*
X30336Y46664D01*
X30503Y46682D01*
X30669Y46708D01*
X30834Y46740D01*
X30997Y46780D01*
X31158Y46827D01*
X31317Y46881D01*
X31474Y46942D01*
X31628Y47010D01*
X31778Y47084D01*
X31925Y47165D01*
X32069Y47252D01*
X32209Y47346D01*
X32344Y47445D01*
X32475Y47550D01*
X32602Y47661D01*
X32723Y47777D01*
X32839Y47898D01*
X32950Y48025D01*
X33055Y48156D01*
X33154Y48291D01*
X33248Y48431D01*
X33335Y48575D01*
X33416Y48722D01*
X33490Y48873D01*
X33558Y49026D01*
X33619Y49183D01*
X33673Y49342D01*
X33720Y49503D01*
X33760Y49667D01*
X33792Y49831D01*
X33818Y49997D01*
X33836Y50164D01*
X33847Y50332D01*
X33851Y50500D01*
X33847Y50668D01*
X33836Y50836D01*
X33818Y51003D01*
X33792Y51169D01*
X33760Y51333D01*
X33720Y51497D01*
X33673Y51658D01*
X33619Y51817D01*
X33558Y51974D01*
X33490Y52127D01*
X33416Y52278D01*
X33335Y52425D01*
X33248Y52569D01*
X33154Y52709D01*
X33055Y52844D01*
X32950Y52975D01*
X32839Y53102D01*
X32723Y53223D01*
X32602Y53339D01*
X32475Y53450D01*
X32344Y53555D01*
X32209Y53654D01*
X32069Y53748D01*
X31925Y53835D01*
X31778Y53916D01*
X31628Y53990D01*
X31474Y54058D01*
X31317Y54119D01*
X31158Y54173D01*
X30997Y54220D01*
X30834Y54260D01*
X30669Y54292D01*
X30503Y54318D01*
X30336Y54336D01*
X30168Y54347D01*
X30000Y54351D01*
D02*
G37*
G36*
X20000D02*
X19832Y54347D01*
X19664Y54336D01*
X19497Y54318D01*
X19331Y54292D01*
X19166Y54260D01*
X19003Y54220D01*
X18842Y54173D01*
X18683Y54119D01*
X18526Y54058D01*
X18372Y53990D01*
X18222Y53916D01*
X18075Y53835D01*
X17931Y53748D01*
X17791Y53654D01*
X17656Y53555D01*
X17525Y53450D01*
X17398Y53339D01*
X17277Y53223D01*
X17161Y53102D01*
X17050Y52975D01*
X16945Y52844D01*
X16846Y52709D01*
X16752Y52569D01*
X16665Y52425D01*
X16584Y52278D01*
X16510Y52127D01*
X16442Y51974D01*
X16381Y51817D01*
X16327Y51658D01*
X16280Y51497D01*
X16240Y51333D01*
X16208Y51169D01*
X16182Y51003D01*
X16164Y50836D01*
X16153Y50668D01*
X16149Y50500D01*
X16153Y50332D01*
X16164Y50164D01*
X16182Y49997D01*
X16208Y49831D01*
X16240Y49667D01*
X16280Y49503D01*
X16327Y49342D01*
X16381Y49183D01*
X16442Y49026D01*
X16510Y48873D01*
X16584Y48722D01*
X16665Y48575D01*
X16752Y48431D01*
X16846Y48291D01*
X16945Y48156D01*
X17050Y48025D01*
X17161Y47898D01*
X17277Y47777D01*
X17398Y47661D01*
X17525Y47550D01*
X17656Y47445D01*
X17791Y47346D01*
X17931Y47252D01*
X18075Y47165D01*
X18222Y47084D01*
X18372Y47010D01*
X18526Y46942D01*
X18683Y46881D01*
X18842Y46827D01*
X19003Y46780D01*
X19166Y46740D01*
X19331Y46708D01*
X19497Y46682D01*
X19664Y46664D01*
X19832Y46653D01*
X20000Y46649D01*
X20168Y46653D01*
X20336Y46664D01*
X20503Y46682D01*
X20669Y46708D01*
X20833Y46740D01*
X20997Y46780D01*
X21158Y46827D01*
X21317Y46881D01*
X21474Y46942D01*
X21628Y47010D01*
X21778Y47084D01*
X21926Y47165D01*
X22069Y47252D01*
X22209Y47346D01*
X22344Y47445D01*
X22475Y47550D01*
X22602Y47661D01*
X22723Y47777D01*
X22839Y47898D01*
X22950Y48025D01*
X23055Y48156D01*
X23155Y48291D01*
X23248Y48431D01*
X23335Y48575D01*
X23416Y48722D01*
X23490Y48873D01*
X23558Y49026D01*
X23619Y49183D01*
X23673Y49342D01*
X23720Y49503D01*
X23760Y49667D01*
X23792Y49831D01*
X23818Y49997D01*
X23836Y50164D01*
X23847Y50332D01*
X23851Y50500D01*
X23847Y50668D01*
X23836Y50836D01*
X23818Y51003D01*
X23792Y51169D01*
X23760Y51333D01*
X23720Y51497D01*
X23673Y51658D01*
X23619Y51817D01*
X23558Y51974D01*
X23490Y52127D01*
X23416Y52278D01*
X23335Y52425D01*
X23248Y52569D01*
X23155Y52709D01*
X23055Y52844D01*
X22950Y52975D01*
X22839Y53102D01*
X22723Y53223D01*
X22602Y53339D01*
X22475Y53450D01*
X22344Y53555D01*
X22209Y53654D01*
X22069Y53748D01*
X21926Y53835D01*
X21778Y53916D01*
X21628Y53990D01*
X21474Y54058D01*
X21317Y54119D01*
X21158Y54173D01*
X20997Y54220D01*
X20833Y54260D01*
X20669Y54292D01*
X20503Y54318D01*
X20336Y54336D01*
X20168Y54347D01*
X20000Y54351D01*
D02*
G37*
G36*
X75000Y50801D02*
X74834Y50797D01*
X74669Y50786D01*
X74504Y50768D01*
X74340Y50743D01*
X74177Y50711D01*
X74016Y50671D01*
X73857Y50625D01*
X73700Y50572D01*
X73545Y50512D01*
X73394Y50445D01*
X73245Y50371D01*
X73099Y50292D01*
X72958Y50206D01*
X72820Y50113D01*
X72686Y50015D01*
X72557Y49912D01*
X72432Y49802D01*
X72312Y49688D01*
X72198Y49568D01*
X72088Y49443D01*
X71984Y49314D01*
X71886Y49180D01*
X71794Y49042D01*
X71708Y48900D01*
X71629Y48755D01*
X71555Y48606D01*
X71488Y48454D01*
X71428Y48300D01*
X71375Y48143D01*
X71329Y47984D01*
X71289Y47823D01*
X71257Y47660D01*
X71232Y47496D01*
X71214Y47331D01*
X71203Y47166D01*
X71199Y47000D01*
X71203Y46834D01*
X71214Y46669D01*
X71232Y46504D01*
X71257Y46340D01*
X71289Y46177D01*
X71329Y46016D01*
X71375Y45857D01*
X71428Y45700D01*
X71488Y45546D01*
X71555Y45394D01*
X71629Y45245D01*
X71708Y45099D01*
X71794Y44958D01*
X71886Y44820D01*
X71984Y44686D01*
X72088Y44557D01*
X72198Y44432D01*
X72312Y44312D01*
X72432Y44198D01*
X72557Y44088D01*
X72686Y43984D01*
X72820Y43887D01*
X72958Y43794D01*
X73099Y43708D01*
X73245Y43629D01*
X73394Y43555D01*
X73545Y43488D01*
X73700Y43428D01*
X73857Y43375D01*
X74016Y43329D01*
X74177Y43289D01*
X74340Y43257D01*
X74504Y43232D01*
X74669Y43214D01*
X74834Y43203D01*
X75000Y43199D01*
X75166Y43203D01*
X75331Y43214D01*
X75496Y43232D01*
X75660Y43257D01*
X75823Y43289D01*
X75984Y43329D01*
X76143Y43375D01*
X76300Y43428D01*
X76455Y43488D01*
X76606Y43555D01*
X76755Y43629D01*
X76901Y43708D01*
X77042Y43794D01*
X77180Y43887D01*
X77314Y43984D01*
X77443Y44088D01*
X77568Y44198D01*
X77688Y44312D01*
X77802Y44432D01*
X77912Y44557D01*
X78016Y44686D01*
X78114Y44820D01*
X78206Y44958D01*
X78292Y45099D01*
X78371Y45245D01*
X78445Y45394D01*
X78512Y45546D01*
X78572Y45700D01*
X78625Y45857D01*
X78671Y46016D01*
X78711Y46177D01*
X78743Y46340D01*
X78768Y46504D01*
X78786Y46669D01*
X78797Y46834D01*
X78801Y47000D01*
X78797Y47166D01*
X78786Y47331D01*
X78768Y47496D01*
X78743Y47660D01*
X78711Y47823D01*
X78671Y47984D01*
X78625Y48143D01*
X78572Y48300D01*
X78512Y48454D01*
X78445Y48606D01*
X78371Y48755D01*
X78292Y48900D01*
X78206Y49042D01*
X78114Y49180D01*
X78016Y49314D01*
X77912Y49443D01*
X77802Y49568D01*
X77688Y49688D01*
X77568Y49802D01*
X77443Y49912D01*
X77314Y50015D01*
X77180Y50113D01*
X77042Y50206D01*
X76901Y50292D01*
X76755Y50371D01*
X76606Y50445D01*
X76455Y50512D01*
X76300Y50572D01*
X76143Y50625D01*
X75984Y50671D01*
X75823Y50711D01*
X75660Y50743D01*
X75496Y50768D01*
X75331Y50786D01*
X75166Y50797D01*
X75000Y50801D01*
D02*
G37*
G36*
X30000Y44351D02*
X29832Y44347D01*
X29664Y44336D01*
X29497Y44318D01*
X29331Y44292D01*
X29166Y44260D01*
X29003Y44220D01*
X28842Y44173D01*
X28683Y44119D01*
X28526Y44058D01*
X28372Y43990D01*
X28222Y43916D01*
X28074Y43835D01*
X27931Y43748D01*
X27791Y43655D01*
X27656Y43555D01*
X27525Y43450D01*
X27398Y43339D01*
X27277Y43223D01*
X27161Y43102D01*
X27050Y42975D01*
X26945Y42844D01*
X26845Y42709D01*
X26752Y42569D01*
X26665Y42426D01*
X26584Y42278D01*
X26510Y42127D01*
X26442Y41974D01*
X26381Y41817D01*
X26327Y41658D01*
X26280Y41497D01*
X26240Y41333D01*
X26208Y41169D01*
X26182Y41003D01*
X26164Y40836D01*
X26153Y40668D01*
X26149Y40500D01*
X26153Y40332D01*
X26164Y40164D01*
X26182Y39997D01*
X26208Y39831D01*
X26240Y39667D01*
X26280Y39503D01*
X26327Y39342D01*
X26381Y39183D01*
X26442Y39026D01*
X26510Y38873D01*
X26584Y38722D01*
X26665Y38574D01*
X26752Y38431D01*
X26845Y38291D01*
X26945Y38156D01*
X27050Y38025D01*
X27161Y37898D01*
X27277Y37777D01*
X27398Y37661D01*
X27525Y37550D01*
X27656Y37445D01*
X27791Y37345D01*
X27931Y37252D01*
X28074Y37165D01*
X28222Y37084D01*
X28372Y37010D01*
X28526Y36942D01*
X28683Y36881D01*
X28842Y36827D01*
X29003Y36780D01*
X29166Y36740D01*
X29331Y36708D01*
X29497Y36682D01*
X29664Y36664D01*
X29832Y36653D01*
X30000Y36649D01*
X30168Y36653D01*
X30336Y36664D01*
X30503Y36682D01*
X30669Y36708D01*
X30834Y36740D01*
X30997Y36780D01*
X31158Y36827D01*
X31317Y36881D01*
X31474Y36942D01*
X31628Y37010D01*
X31778Y37084D01*
X31925Y37165D01*
X32069Y37252D01*
X32209Y37345D01*
X32344Y37445D01*
X32475Y37550D01*
X32602Y37661D01*
X32723Y37777D01*
X32839Y37898D01*
X32950Y38025D01*
X33055Y38156D01*
X33154Y38291D01*
X33248Y38431D01*
X33335Y38574D01*
X33416Y38722D01*
X33490Y38873D01*
X33558Y39026D01*
X33619Y39183D01*
X33673Y39342D01*
X33720Y39503D01*
X33760Y39667D01*
X33792Y39831D01*
X33818Y39997D01*
X33836Y40164D01*
X33847Y40332D01*
X33851Y40500D01*
X33847Y40668D01*
X33836Y40836D01*
X33818Y41003D01*
X33792Y41169D01*
X33760Y41333D01*
X33720Y41497D01*
X33673Y41658D01*
X33619Y41817D01*
X33558Y41974D01*
X33490Y42127D01*
X33416Y42278D01*
X33335Y42426D01*
X33248Y42569D01*
X33154Y42709D01*
X33055Y42844D01*
X32950Y42975D01*
X32839Y43102D01*
X32723Y43223D01*
X32602Y43339D01*
X32475Y43450D01*
X32344Y43555D01*
X32209Y43655D01*
X32069Y43748D01*
X31925Y43835D01*
X31778Y43916D01*
X31628Y43990D01*
X31474Y44058D01*
X31317Y44119D01*
X31158Y44173D01*
X30997Y44220D01*
X30834Y44260D01*
X30669Y44292D01*
X30503Y44318D01*
X30336Y44336D01*
X30168Y44347D01*
X30000Y44351D01*
D02*
G37*
G36*
X20000D02*
X19832Y44347D01*
X19664Y44336D01*
X19497Y44318D01*
X19331Y44292D01*
X19166Y44260D01*
X19003Y44220D01*
X18842Y44173D01*
X18683Y44119D01*
X18526Y44058D01*
X18372Y43990D01*
X18222Y43916D01*
X18075Y43835D01*
X17931Y43748D01*
X17791Y43655D01*
X17656Y43555D01*
X17525Y43450D01*
X17398Y43339D01*
X17277Y43223D01*
X17161Y43102D01*
X17050Y42975D01*
X16945Y42844D01*
X16846Y42709D01*
X16752Y42569D01*
X16665Y42426D01*
X16584Y42278D01*
X16510Y42127D01*
X16442Y41974D01*
X16381Y41817D01*
X16327Y41658D01*
X16280Y41497D01*
X16240Y41333D01*
X16208Y41169D01*
X16182Y41003D01*
X16164Y40836D01*
X16153Y40668D01*
X16149Y40500D01*
X16153Y40332D01*
X16164Y40164D01*
X16182Y39997D01*
X16208Y39831D01*
X16240Y39667D01*
X16280Y39503D01*
X16327Y39342D01*
X16381Y39183D01*
X16442Y39026D01*
X16510Y38873D01*
X16584Y38722D01*
X16665Y38574D01*
X16752Y38431D01*
X16846Y38291D01*
X16945Y38156D01*
X17050Y38025D01*
X17161Y37898D01*
X17277Y37777D01*
X17398Y37661D01*
X17525Y37550D01*
X17656Y37445D01*
X17791Y37345D01*
X17931Y37252D01*
X18075Y37165D01*
X18222Y37084D01*
X18372Y37010D01*
X18526Y36942D01*
X18683Y36881D01*
X18842Y36827D01*
X19003Y36780D01*
X19166Y36740D01*
X19331Y36708D01*
X19497Y36682D01*
X19664Y36664D01*
X19832Y36653D01*
X20000Y36649D01*
X20168Y36653D01*
X20336Y36664D01*
X20503Y36682D01*
X20669Y36708D01*
X20833Y36740D01*
X20997Y36780D01*
X21158Y36827D01*
X21317Y36881D01*
X21474Y36942D01*
X21628Y37010D01*
X21778Y37084D01*
X21926Y37165D01*
X22069Y37252D01*
X22209Y37345D01*
X22344Y37445D01*
X22475Y37550D01*
X22602Y37661D01*
X22723Y37777D01*
X22839Y37898D01*
X22950Y38025D01*
X23055Y38156D01*
X23155Y38291D01*
X23248Y38431D01*
X23335Y38574D01*
X23416Y38722D01*
X23490Y38873D01*
X23558Y39026D01*
X23619Y39183D01*
X23673Y39342D01*
X23720Y39503D01*
X23760Y39667D01*
X23792Y39831D01*
X23818Y39997D01*
X23836Y40164D01*
X23847Y40332D01*
X23851Y40500D01*
X23847Y40668D01*
X23836Y40836D01*
X23818Y41003D01*
X23792Y41169D01*
X23760Y41333D01*
X23720Y41497D01*
X23673Y41658D01*
X23619Y41817D01*
X23558Y41974D01*
X23490Y42127D01*
X23416Y42278D01*
X23335Y42426D01*
X23248Y42569D01*
X23155Y42709D01*
X23055Y42844D01*
X22950Y42975D01*
X22839Y43102D01*
X22723Y43223D01*
X22602Y43339D01*
X22475Y43450D01*
X22344Y43555D01*
X22209Y43655D01*
X22069Y43748D01*
X21926Y43835D01*
X21778Y43916D01*
X21628Y43990D01*
X21474Y44058D01*
X21317Y44119D01*
X21158Y44173D01*
X20997Y44220D01*
X20833Y44260D01*
X20669Y44292D01*
X20503Y44318D01*
X20336Y44336D01*
X20168Y44347D01*
X20000Y44351D01*
D02*
G37*
G36*
X75000Y40801D02*
X74834Y40797D01*
X74669Y40786D01*
X74504Y40768D01*
X74340Y40743D01*
X74177Y40711D01*
X74016Y40671D01*
X73857Y40625D01*
X73700Y40572D01*
X73545Y40512D01*
X73394Y40445D01*
X73245Y40371D01*
X73099Y40292D01*
X72958Y40206D01*
X72820Y40113D01*
X72686Y40016D01*
X72557Y39912D01*
X72432Y39802D01*
X72312Y39688D01*
X72198Y39568D01*
X72088Y39443D01*
X71984Y39314D01*
X71886Y39180D01*
X71794Y39042D01*
X71708Y38901D01*
X71629Y38755D01*
X71555Y38606D01*
X71488Y38454D01*
X71428Y38300D01*
X71375Y38143D01*
X71329Y37984D01*
X71289Y37823D01*
X71257Y37660D01*
X71232Y37496D01*
X71214Y37331D01*
X71203Y37166D01*
X71199Y37000D01*
X71203Y36834D01*
X71214Y36669D01*
X71232Y36504D01*
X71257Y36340D01*
X71289Y36177D01*
X71329Y36016D01*
X71375Y35857D01*
X71428Y35700D01*
X71488Y35546D01*
X71555Y35394D01*
X71629Y35245D01*
X71708Y35100D01*
X71794Y34958D01*
X71886Y34820D01*
X71984Y34686D01*
X72088Y34557D01*
X72198Y34432D01*
X72312Y34312D01*
X72432Y34198D01*
X72557Y34088D01*
X72686Y33985D01*
X72820Y33887D01*
X72958Y33794D01*
X73099Y33708D01*
X73245Y33629D01*
X73394Y33555D01*
X73545Y33488D01*
X73700Y33428D01*
X73857Y33375D01*
X74016Y33329D01*
X74177Y33289D01*
X74340Y33257D01*
X74504Y33232D01*
X74669Y33214D01*
X74834Y33203D01*
X75000Y33199D01*
X75166Y33203D01*
X75331Y33214D01*
X75496Y33232D01*
X75660Y33257D01*
X75823Y33289D01*
X75984Y33329D01*
X76143Y33375D01*
X76300Y33428D01*
X76455Y33488D01*
X76606Y33555D01*
X76755Y33629D01*
X76901Y33708D01*
X77042Y33794D01*
X77180Y33887D01*
X77314Y33985D01*
X77443Y34088D01*
X77568Y34198D01*
X77688Y34312D01*
X77802Y34432D01*
X77912Y34557D01*
X78016Y34686D01*
X78114Y34820D01*
X78206Y34958D01*
X78292Y35100D01*
X78371Y35245D01*
X78445Y35394D01*
X78512Y35546D01*
X78572Y35700D01*
X78625Y35857D01*
X78671Y36016D01*
X78711Y36177D01*
X78743Y36340D01*
X78768Y36504D01*
X78786Y36669D01*
X78797Y36834D01*
X78801Y37000D01*
X78797Y37166D01*
X78786Y37331D01*
X78768Y37496D01*
X78743Y37660D01*
X78711Y37823D01*
X78671Y37984D01*
X78625Y38143D01*
X78572Y38300D01*
X78512Y38454D01*
X78445Y38606D01*
X78371Y38755D01*
X78292Y38901D01*
X78206Y39042D01*
X78114Y39180D01*
X78016Y39314D01*
X77912Y39443D01*
X77802Y39568D01*
X77688Y39688D01*
X77568Y39802D01*
X77443Y39912D01*
X77314Y40016D01*
X77180Y40113D01*
X77042Y40206D01*
X76901Y40292D01*
X76755Y40371D01*
X76606Y40445D01*
X76455Y40512D01*
X76300Y40572D01*
X76143Y40625D01*
X75984Y40671D01*
X75823Y40711D01*
X75660Y40743D01*
X75496Y40768D01*
X75331Y40786D01*
X75166Y40797D01*
X75000Y40801D01*
D02*
G37*
G36*
X30000Y34351D02*
X29832Y34347D01*
X29664Y34336D01*
X29497Y34318D01*
X29331Y34292D01*
X29166Y34260D01*
X29003Y34220D01*
X28842Y34173D01*
X28683Y34119D01*
X28526Y34058D01*
X28372Y33990D01*
X28222Y33916D01*
X28074Y33835D01*
X27931Y33748D01*
X27791Y33654D01*
X27656Y33555D01*
X27525Y33450D01*
X27398Y33339D01*
X27277Y33223D01*
X27161Y33102D01*
X27050Y32975D01*
X26945Y32844D01*
X26845Y32709D01*
X26752Y32569D01*
X26665Y32425D01*
X26584Y32278D01*
X26510Y32127D01*
X26442Y31974D01*
X26381Y31817D01*
X26327Y31658D01*
X26280Y31497D01*
X26240Y31334D01*
X26208Y31169D01*
X26182Y31003D01*
X26164Y30836D01*
X26153Y30668D01*
X26149Y30500D01*
X26153Y30332D01*
X26164Y30164D01*
X26182Y29997D01*
X26208Y29831D01*
X26240Y29667D01*
X26280Y29503D01*
X26327Y29342D01*
X26381Y29183D01*
X26442Y29026D01*
X26510Y28872D01*
X26584Y28722D01*
X26665Y28574D01*
X26752Y28431D01*
X26845Y28291D01*
X26945Y28156D01*
X27050Y28025D01*
X27161Y27898D01*
X27277Y27777D01*
X27398Y27661D01*
X27525Y27550D01*
X27656Y27445D01*
X27791Y27345D01*
X27931Y27252D01*
X28074Y27165D01*
X28222Y27084D01*
X28372Y27010D01*
X28526Y26942D01*
X28683Y26881D01*
X28842Y26827D01*
X29003Y26780D01*
X29166Y26740D01*
X29331Y26708D01*
X29497Y26682D01*
X29664Y26664D01*
X29832Y26653D01*
X30000Y26649D01*
X30168Y26653D01*
X30336Y26664D01*
X30503Y26682D01*
X30669Y26708D01*
X30834Y26740D01*
X30997Y26780D01*
X31158Y26827D01*
X31317Y26881D01*
X31474Y26942D01*
X31628Y27010D01*
X31778Y27084D01*
X31925Y27165D01*
X32069Y27252D01*
X32209Y27345D01*
X32344Y27445D01*
X32475Y27550D01*
X32602Y27661D01*
X32723Y27777D01*
X32839Y27898D01*
X32950Y28025D01*
X33055Y28156D01*
X33154Y28291D01*
X33248Y28431D01*
X33335Y28574D01*
X33416Y28722D01*
X33490Y28872D01*
X33558Y29026D01*
X33619Y29183D01*
X33673Y29342D01*
X33720Y29503D01*
X33760Y29667D01*
X33792Y29831D01*
X33818Y29997D01*
X33836Y30164D01*
X33847Y30332D01*
X33851Y30500D01*
X33847Y30668D01*
X33836Y30836D01*
X33818Y31003D01*
X33792Y31169D01*
X33760Y31334D01*
X33720Y31497D01*
X33673Y31658D01*
X33619Y31817D01*
X33558Y31974D01*
X33490Y32127D01*
X33416Y32278D01*
X33335Y32425D01*
X33248Y32569D01*
X33154Y32709D01*
X33055Y32844D01*
X32950Y32975D01*
X32839Y33102D01*
X32723Y33223D01*
X32602Y33339D01*
X32475Y33450D01*
X32344Y33555D01*
X32209Y33654D01*
X32069Y33748D01*
X31925Y33835D01*
X31778Y33916D01*
X31628Y33990D01*
X31474Y34058D01*
X31317Y34119D01*
X31158Y34173D01*
X30997Y34220D01*
X30834Y34260D01*
X30669Y34292D01*
X30503Y34318D01*
X30336Y34336D01*
X30168Y34347D01*
X30000Y34351D01*
D02*
G37*
G36*
X20000D02*
X19832Y34347D01*
X19664Y34336D01*
X19497Y34318D01*
X19331Y34292D01*
X19166Y34260D01*
X19003Y34220D01*
X18842Y34173D01*
X18683Y34119D01*
X18526Y34058D01*
X18372Y33990D01*
X18222Y33916D01*
X18075Y33835D01*
X17931Y33748D01*
X17791Y33654D01*
X17656Y33555D01*
X17525Y33450D01*
X17398Y33339D01*
X17277Y33223D01*
X17161Y33102D01*
X17050Y32975D01*
X16945Y32844D01*
X16846Y32709D01*
X16752Y32569D01*
X16665Y32425D01*
X16584Y32278D01*
X16510Y32127D01*
X16442Y31974D01*
X16381Y31817D01*
X16327Y31658D01*
X16280Y31497D01*
X16240Y31334D01*
X16208Y31169D01*
X16182Y31003D01*
X16164Y30836D01*
X16153Y30668D01*
X16149Y30500D01*
X16153Y30332D01*
X16164Y30164D01*
X16182Y29997D01*
X16208Y29831D01*
X16240Y29667D01*
X16280Y29503D01*
X16327Y29342D01*
X16381Y29183D01*
X16442Y29026D01*
X16510Y28872D01*
X16584Y28722D01*
X16665Y28574D01*
X16752Y28431D01*
X16846Y28291D01*
X16945Y28156D01*
X17050Y28025D01*
X17161Y27898D01*
X17277Y27777D01*
X17398Y27661D01*
X17525Y27550D01*
X17656Y27445D01*
X17791Y27345D01*
X17931Y27252D01*
X18075Y27165D01*
X18222Y27084D01*
X18372Y27010D01*
X18526Y26942D01*
X18683Y26881D01*
X18842Y26827D01*
X19003Y26780D01*
X19166Y26740D01*
X19331Y26708D01*
X19497Y26682D01*
X19664Y26664D01*
X19832Y26653D01*
X20000Y26649D01*
X20168Y26653D01*
X20336Y26664D01*
X20503Y26682D01*
X20669Y26708D01*
X20833Y26740D01*
X20997Y26780D01*
X21158Y26827D01*
X21317Y26881D01*
X21474Y26942D01*
X21628Y27010D01*
X21778Y27084D01*
X21926Y27165D01*
X22069Y27252D01*
X22209Y27345D01*
X22344Y27445D01*
X22475Y27550D01*
X22602Y27661D01*
X22723Y27777D01*
X22839Y27898D01*
X22950Y28025D01*
X23055Y28156D01*
X23155Y28291D01*
X23248Y28431D01*
X23335Y28574D01*
X23416Y28722D01*
X23490Y28872D01*
X23558Y29026D01*
X23619Y29183D01*
X23673Y29342D01*
X23720Y29503D01*
X23760Y29667D01*
X23792Y29831D01*
X23818Y29997D01*
X23836Y30164D01*
X23847Y30332D01*
X23851Y30500D01*
X23847Y30668D01*
X23836Y30836D01*
X23818Y31003D01*
X23792Y31169D01*
X23760Y31334D01*
X23720Y31497D01*
X23673Y31658D01*
X23619Y31817D01*
X23558Y31974D01*
X23490Y32127D01*
X23416Y32278D01*
X23335Y32425D01*
X23248Y32569D01*
X23155Y32709D01*
X23055Y32844D01*
X22950Y32975D01*
X22839Y33102D01*
X22723Y33223D01*
X22602Y33339D01*
X22475Y33450D01*
X22344Y33555D01*
X22209Y33654D01*
X22069Y33748D01*
X21926Y33835D01*
X21778Y33916D01*
X21628Y33990D01*
X21474Y34058D01*
X21317Y34119D01*
X21158Y34173D01*
X20997Y34220D01*
X20833Y34260D01*
X20669Y34292D01*
X20503Y34318D01*
X20336Y34336D01*
X20168Y34347D01*
X20000Y34351D01*
D02*
G37*
G36*
X75000Y30801D02*
X74834Y30797D01*
X74669Y30786D01*
X74504Y30768D01*
X74340Y30743D01*
X74177Y30711D01*
X74016Y30671D01*
X73857Y30625D01*
X73700Y30572D01*
X73545Y30512D01*
X73394Y30445D01*
X73245Y30371D01*
X73099Y30292D01*
X72958Y30206D01*
X72820Y30114D01*
X72686Y30016D01*
X72557Y29912D01*
X72432Y29802D01*
X72312Y29688D01*
X72198Y29568D01*
X72088Y29443D01*
X71984Y29314D01*
X71886Y29180D01*
X71794Y29042D01*
X71708Y28901D01*
X71629Y28755D01*
X71555Y28606D01*
X71488Y28455D01*
X71428Y28300D01*
X71375Y28143D01*
X71329Y27984D01*
X71289Y27823D01*
X71257Y27660D01*
X71232Y27496D01*
X71214Y27331D01*
X71203Y27166D01*
X71199Y27000D01*
X71203Y26834D01*
X71214Y26669D01*
X71232Y26504D01*
X71257Y26340D01*
X71289Y26177D01*
X71329Y26016D01*
X71375Y25857D01*
X71428Y25700D01*
X71488Y25545D01*
X71555Y25394D01*
X71629Y25245D01*
X71708Y25100D01*
X71794Y24958D01*
X71886Y24820D01*
X71984Y24686D01*
X72088Y24557D01*
X72198Y24432D01*
X72312Y24312D01*
X72432Y24198D01*
X72557Y24088D01*
X72686Y23984D01*
X72820Y23887D01*
X72958Y23794D01*
X73099Y23708D01*
X73245Y23629D01*
X73394Y23555D01*
X73545Y23488D01*
X73700Y23428D01*
X73857Y23375D01*
X74016Y23329D01*
X74177Y23289D01*
X74340Y23257D01*
X74504Y23232D01*
X74669Y23214D01*
X74834Y23203D01*
X75000Y23199D01*
X75166Y23203D01*
X75331Y23214D01*
X75496Y23232D01*
X75660Y23257D01*
X75823Y23289D01*
X75984Y23329D01*
X76143Y23375D01*
X76300Y23428D01*
X76455Y23488D01*
X76606Y23555D01*
X76755Y23629D01*
X76901Y23708D01*
X77042Y23794D01*
X77180Y23887D01*
X77314Y23984D01*
X77443Y24088D01*
X77568Y24198D01*
X77688Y24312D01*
X77802Y24432D01*
X77912Y24557D01*
X78016Y24686D01*
X78114Y24820D01*
X78206Y24958D01*
X78292Y25100D01*
X78371Y25245D01*
X78445Y25394D01*
X78512Y25545D01*
X78572Y25700D01*
X78625Y25857D01*
X78671Y26016D01*
X78711Y26177D01*
X78743Y26340D01*
X78768Y26504D01*
X78786Y26669D01*
X78797Y26834D01*
X78801Y27000D01*
X78797Y27166D01*
X78786Y27331D01*
X78768Y27496D01*
X78743Y27660D01*
X78711Y27823D01*
X78671Y27984D01*
X78625Y28143D01*
X78572Y28300D01*
X78512Y28455D01*
X78445Y28606D01*
X78371Y28755D01*
X78292Y28901D01*
X78206Y29042D01*
X78114Y29180D01*
X78016Y29314D01*
X77912Y29443D01*
X77802Y29568D01*
X77688Y29688D01*
X77568Y29802D01*
X77443Y29912D01*
X77314Y30016D01*
X77180Y30114D01*
X77042Y30206D01*
X76901Y30292D01*
X76755Y30371D01*
X76606Y30445D01*
X76455Y30512D01*
X76300Y30572D01*
X76143Y30625D01*
X75984Y30671D01*
X75823Y30711D01*
X75660Y30743D01*
X75496Y30768D01*
X75331Y30786D01*
X75166Y30797D01*
X75000Y30801D01*
D02*
G37*
G36*
X34150Y24650D02*
X30500D01*
Y21000D01*
X34150D01*
Y24650D01*
D02*
G37*
G36*
X29500D02*
X25850D01*
Y21000D01*
X29500D01*
Y24650D01*
D02*
G37*
G36*
X20000Y24351D02*
X19832Y24347D01*
X19664Y24336D01*
X19497Y24318D01*
X19331Y24292D01*
X19166Y24260D01*
X19003Y24220D01*
X18842Y24173D01*
X18683Y24119D01*
X18526Y24058D01*
X18372Y23990D01*
X18222Y23916D01*
X18075Y23835D01*
X17931Y23748D01*
X17791Y23654D01*
X17656Y23555D01*
X17525Y23450D01*
X17398Y23339D01*
X17277Y23223D01*
X17161Y23102D01*
X17050Y22975D01*
X16945Y22844D01*
X16846Y22709D01*
X16752Y22569D01*
X16665Y22425D01*
X16584Y22278D01*
X16510Y22128D01*
X16442Y21974D01*
X16381Y21817D01*
X16327Y21658D01*
X16280Y21497D01*
X16240Y21334D01*
X16208Y21169D01*
X16182Y21003D01*
X16164Y20836D01*
X16153Y20668D01*
X16149Y20500D01*
X16153Y20332D01*
X16164Y20164D01*
X16182Y19997D01*
X16208Y19831D01*
X16240Y19667D01*
X16280Y19503D01*
X16327Y19342D01*
X16381Y19183D01*
X16442Y19026D01*
X16510Y18872D01*
X16584Y18722D01*
X16665Y18575D01*
X16752Y18431D01*
X16846Y18291D01*
X16945Y18156D01*
X17050Y18025D01*
X17161Y17898D01*
X17277Y17777D01*
X17398Y17661D01*
X17525Y17550D01*
X17656Y17445D01*
X17791Y17345D01*
X17931Y17252D01*
X18075Y17165D01*
X18222Y17084D01*
X18372Y17010D01*
X18526Y16942D01*
X18683Y16881D01*
X18842Y16827D01*
X19003Y16780D01*
X19166Y16740D01*
X19331Y16708D01*
X19497Y16682D01*
X19664Y16664D01*
X19832Y16653D01*
X20000Y16649D01*
X20168Y16653D01*
X20336Y16664D01*
X20503Y16682D01*
X20669Y16708D01*
X20833Y16740D01*
X20997Y16780D01*
X21158Y16827D01*
X21317Y16881D01*
X21474Y16942D01*
X21628Y17010D01*
X21778Y17084D01*
X21926Y17165D01*
X22069Y17252D01*
X22209Y17345D01*
X22344Y17445D01*
X22475Y17550D01*
X22602Y17661D01*
X22723Y17777D01*
X22839Y17898D01*
X22950Y18025D01*
X23055Y18156D01*
X23155Y18291D01*
X23248Y18431D01*
X23335Y18575D01*
X23416Y18722D01*
X23490Y18872D01*
X23558Y19026D01*
X23619Y19183D01*
X23673Y19342D01*
X23720Y19503D01*
X23760Y19667D01*
X23792Y19831D01*
X23818Y19997D01*
X23836Y20164D01*
X23847Y20332D01*
X23851Y20500D01*
X23847Y20668D01*
X23836Y20836D01*
X23818Y21003D01*
X23792Y21169D01*
X23760Y21334D01*
X23720Y21497D01*
X23673Y21658D01*
X23619Y21817D01*
X23558Y21974D01*
X23490Y22128D01*
X23416Y22278D01*
X23335Y22425D01*
X23248Y22569D01*
X23155Y22709D01*
X23055Y22844D01*
X22950Y22975D01*
X22839Y23102D01*
X22723Y23223D01*
X22602Y23339D01*
X22475Y23450D01*
X22344Y23555D01*
X22209Y23654D01*
X22069Y23748D01*
X21926Y23835D01*
X21778Y23916D01*
X21628Y23990D01*
X21474Y24058D01*
X21317Y24119D01*
X21158Y24173D01*
X20997Y24220D01*
X20833Y24260D01*
X20669Y24292D01*
X20503Y24318D01*
X20336Y24336D01*
X20168Y24347D01*
X20000Y24351D01*
D02*
G37*
G36*
X34150Y20000D02*
X30500D01*
Y16350D01*
X34150D01*
Y20000D01*
D02*
G37*
G36*
X29500D02*
X25850D01*
Y16350D01*
X29500D01*
Y20000D01*
D02*
G37*
G36*
X75000Y20801D02*
X74834Y20797D01*
X74669Y20786D01*
X74504Y20768D01*
X74340Y20743D01*
X74177Y20711D01*
X74016Y20671D01*
X73857Y20625D01*
X73700Y20572D01*
X73545Y20512D01*
X73394Y20445D01*
X73245Y20371D01*
X73099Y20292D01*
X72958Y20206D01*
X72820Y20113D01*
X72686Y20016D01*
X72557Y19912D01*
X72432Y19802D01*
X72312Y19688D01*
X72198Y19568D01*
X72088Y19443D01*
X71984Y19314D01*
X71886Y19180D01*
X71794Y19042D01*
X71708Y18901D01*
X71629Y18755D01*
X71555Y18606D01*
X71488Y18454D01*
X71428Y18300D01*
X71375Y18143D01*
X71329Y17984D01*
X71289Y17823D01*
X71257Y17660D01*
X71232Y17496D01*
X71214Y17331D01*
X71203Y17166D01*
X71199Y17000D01*
X71203Y16834D01*
X71214Y16669D01*
X71232Y16504D01*
X71257Y16340D01*
X71289Y16177D01*
X71329Y16016D01*
X71375Y15857D01*
X71428Y15700D01*
X71488Y15545D01*
X71555Y15394D01*
X71629Y15245D01*
X71708Y15100D01*
X71794Y14958D01*
X71886Y14820D01*
X71984Y14686D01*
X72088Y14557D01*
X72198Y14432D01*
X72312Y14312D01*
X72432Y14198D01*
X72557Y14088D01*
X72686Y13984D01*
X72820Y13886D01*
X72958Y13794D01*
X73099Y13708D01*
X73245Y13629D01*
X73394Y13555D01*
X73545Y13488D01*
X73700Y13428D01*
X73857Y13375D01*
X74016Y13329D01*
X74177Y13289D01*
X74340Y13257D01*
X74504Y13232D01*
X74669Y13214D01*
X74834Y13203D01*
X75000Y13199D01*
X75166Y13203D01*
X75331Y13214D01*
X75496Y13232D01*
X75660Y13257D01*
X75823Y13289D01*
X75984Y13329D01*
X76143Y13375D01*
X76300Y13428D01*
X76455Y13488D01*
X76606Y13555D01*
X76755Y13629D01*
X76901Y13708D01*
X77042Y13794D01*
X77180Y13886D01*
X77314Y13984D01*
X77443Y14088D01*
X77568Y14198D01*
X77688Y14312D01*
X77802Y14432D01*
X77912Y14557D01*
X78016Y14686D01*
X78114Y14820D01*
X78206Y14958D01*
X78292Y15100D01*
X78371Y15245D01*
X78445Y15394D01*
X78512Y15545D01*
X78572Y15700D01*
X78625Y15857D01*
X78671Y16016D01*
X78711Y16177D01*
X78743Y16340D01*
X78768Y16504D01*
X78786Y16669D01*
X78797Y16834D01*
X78801Y17000D01*
X78797Y17166D01*
X78786Y17331D01*
X78768Y17496D01*
X78743Y17660D01*
X78711Y17823D01*
X78671Y17984D01*
X78625Y18143D01*
X78572Y18300D01*
X78512Y18454D01*
X78445Y18606D01*
X78371Y18755D01*
X78292Y18901D01*
X78206Y19042D01*
X78114Y19180D01*
X78016Y19314D01*
X77912Y19443D01*
X77802Y19568D01*
X77688Y19688D01*
X77568Y19802D01*
X77443Y19912D01*
X77314Y20016D01*
X77180Y20113D01*
X77042Y20206D01*
X76901Y20292D01*
X76755Y20371D01*
X76606Y20445D01*
X76455Y20512D01*
X76300Y20572D01*
X76143Y20625D01*
X75984Y20671D01*
X75823Y20711D01*
X75660Y20743D01*
X75496Y20768D01*
X75331Y20786D01*
X75166Y20797D01*
X75000Y20801D01*
D02*
G37*
G36*
X78800Y10800D02*
X71200D01*
Y3200D01*
X78800D01*
Y10800D01*
D02*
G37*
%LPD*%
D25*
X9000Y85500D02*
D03*
X75000Y7000D02*
D03*
D26*
X9000Y95500D02*
D03*
X75000Y27000D02*
D03*
Y97000D02*
D03*
Y87000D02*
D03*
Y77000D02*
D03*
Y67000D02*
D03*
Y57000D02*
D03*
Y47000D02*
D03*
Y37000D02*
D03*
Y17000D02*
D03*
D27*
X20000Y60500D02*
D03*
X30000D02*
D03*
X20000Y50500D02*
D03*
X30000D02*
D03*
X20000Y40500D02*
D03*
X30000D02*
D03*
X20000Y30500D02*
D03*
X30000D02*
D03*
X20000Y20500D02*
D03*
D28*
X30000D02*
D03*
D29*
X23500Y85500D02*
D03*
D30*
X43000Y99000D02*
D03*
X51300D02*
D03*
X43000Y61500D02*
D03*
X51300D02*
D03*
D31*
X57500Y80500D02*
D03*
D32*
X34272Y89555D02*
D03*
Y80500D02*
D03*
Y71445D02*
D03*
D33*
X23500Y85500D02*
X27150Y89150D01*
X33867D01*
X34272Y89555D01*
X42900Y98183D02*
Y98900D01*
X34272Y89555D02*
X42900Y98183D01*
Y98900D02*
X43000Y99000D01*
X38587Y70413D02*
X43000Y66000D01*
X38587Y70413D02*
Y70476D01*
X43000Y61500D02*
Y66000D01*
X37618Y71445D02*
X38587Y70476D01*
X34272Y71445D02*
X37618D01*
X23055D02*
X34272D01*
X9000Y85500D02*
X23055Y71445D01*
M02*
