G04*
G04 #@! TF.GenerationSoftware,Altium Limited,Altium Designer,19.0.15 (446)*
G04*
G04 Layer_Color=65535*
%FSLAX25Y25*%
%MOIN*%
G70*
G01*
G75*
%ADD10C,0.02200*%
%ADD11C,0.00787*%
%ADD12C,0.00500*%
%ADD13C,0.01000*%
%ADD14C,0.00800*%
%ADD15C,0.00700*%
D10*
X38500Y12500D02*
G03*
X38500Y12500I-1000J0D01*
G01*
D11*
X4000Y100500D02*
X14000D01*
Y80500D02*
Y100500D01*
X4000Y80500D02*
X14000D01*
X4000D02*
Y100500D01*
X59803Y100559D02*
X60197D01*
X59803Y95441D02*
X60197D01*
X59669Y90559D02*
X60063D01*
X59669Y85441D02*
X60063D01*
X59803Y80559D02*
X60197D01*
X59803Y75441D02*
X60197D01*
X59803Y70559D02*
X60197D01*
X59803Y65441D02*
X60197D01*
X59669Y49559D02*
X60063D01*
X59669Y44441D02*
X60063D01*
X59803Y38559D02*
X60197D01*
X59803Y33441D02*
X60197D01*
X59803Y27559D02*
X60197D01*
X59803Y22441D02*
X60197D01*
X59803Y16559D02*
X60197D01*
X59803Y11441D02*
X60197D01*
X34303Y92841D02*
X34697D01*
X34303Y97959D02*
X34697D01*
X70000Y9500D02*
Y102000D01*
Y2000D02*
Y9500D01*
Y2000D02*
X80000D01*
Y102000D01*
X70000D02*
X80000D01*
X35000Y15500D02*
Y65500D01*
X15000Y15500D02*
Y65500D01*
Y15500D02*
X35000D01*
X15000Y65500D02*
X35000D01*
D12*
X33116Y85400D02*
X33866D01*
X33116Y86400D02*
X33866Y85400D01*
X33116Y86400D02*
X34166Y85900D01*
X33116Y87400D02*
X34166Y85900D01*
X33116Y87400D02*
X34366Y86150D01*
X33116Y88400D02*
X34366Y86150D01*
X33116Y88400D02*
X34666Y86400D01*
X33866Y85400D02*
X34666Y86400D01*
X33116Y84400D02*
X33866Y85400D01*
X33116Y84400D02*
Y85400D01*
Y86400D01*
Y87400D01*
Y88400D01*
X27616Y89900D02*
X40166D01*
X27616Y82900D02*
Y89900D01*
Y82900D02*
X40166D01*
Y89900D01*
D13*
X36500Y32499D02*
X37833D01*
X37166D01*
Y28500D01*
X36500D01*
X37833D01*
X41832Y32499D02*
X40499D01*
X39832Y31832D01*
Y29166D01*
X40499Y28500D01*
X41832D01*
X42498Y29166D01*
Y31832D01*
X41832Y32499D01*
X43831Y28500D02*
X45164D01*
X44497D01*
Y32499D01*
X43831Y31832D01*
X2500Y52999D02*
X3833D01*
X3167D01*
Y49000D01*
X2500D01*
X3833D01*
X7832Y52999D02*
X6499D01*
X5832Y52332D01*
Y49666D01*
X6499Y49000D01*
X7832D01*
X8498Y49666D01*
Y52332D01*
X7832Y52999D01*
X12497D02*
X11164Y52332D01*
X9831Y50999D01*
Y49666D01*
X10497Y49000D01*
X11830D01*
X12497Y49666D01*
Y50333D01*
X11830Y50999D01*
X9831D01*
X36500Y62499D02*
X37833D01*
X37166D01*
Y58500D01*
X36500D01*
X37833D01*
X41832Y62499D02*
X40499D01*
X39832Y61832D01*
Y59166D01*
X40499Y58500D01*
X41832D01*
X42498Y59166D01*
Y61832D01*
X41832Y62499D01*
X43831D02*
X46497D01*
Y61832D01*
X43831Y59166D01*
Y58500D01*
X83500Y28999D02*
X84833D01*
X84166D01*
Y25000D01*
X83500D01*
X84833D01*
X88832Y28999D02*
X87499D01*
X86832Y28332D01*
Y25666D01*
X87499Y25000D01*
X88832D01*
X89498Y25666D01*
Y28332D01*
X88832Y28999D01*
X90831Y25000D02*
X92164D01*
X91497D01*
Y28999D01*
X90831Y28332D01*
X2500Y32499D02*
X3833D01*
X3167D01*
Y28500D01*
X2500D01*
X3833D01*
X7832Y32499D02*
X6499D01*
X5832Y31832D01*
Y29166D01*
X6499Y28500D01*
X7832D01*
X8498Y29166D01*
Y31832D01*
X7832Y32499D01*
X12497Y28500D02*
X9831D01*
X12497Y31166D01*
Y31832D01*
X11830Y32499D01*
X10497D01*
X9831Y31832D01*
X36500Y52499D02*
X37833D01*
X37166D01*
Y48500D01*
X36500D01*
X37833D01*
X41832Y52499D02*
X40499D01*
X39832Y51832D01*
Y49166D01*
X40499Y48500D01*
X41832D01*
X42498Y49166D01*
Y51832D01*
X41832Y52499D01*
X46497D02*
X43831D01*
Y50499D01*
X45164Y51166D01*
X45830D01*
X46497Y50499D01*
Y49166D01*
X45830Y48500D01*
X44497D01*
X43831Y49166D01*
X83500Y58999D02*
X84833D01*
X84166D01*
Y55000D01*
X83500D01*
X84833D01*
X88832Y58999D02*
X87499D01*
X86832Y58332D01*
Y55666D01*
X87499Y55000D01*
X88832D01*
X89498Y55666D01*
Y58332D01*
X88832Y58999D01*
X92830Y55000D02*
Y58999D01*
X90831Y56999D01*
X93497D01*
X2500Y21999D02*
X3833D01*
X3167D01*
Y18000D01*
X2500D01*
X3833D01*
X7832Y21999D02*
X6499D01*
X5832Y21332D01*
Y18666D01*
X6499Y18000D01*
X7832D01*
X8498Y18666D01*
Y21332D01*
X7832Y21999D01*
X9831Y21332D02*
X10497Y21999D01*
X11830D01*
X12497Y21332D01*
Y18666D01*
X11830Y18000D01*
X10497D01*
X9831Y18666D01*
Y21332D01*
X83500Y89499D02*
X84833D01*
X84166D01*
Y85500D01*
X83500D01*
X84833D01*
X88832Y89499D02*
X87499D01*
X86832Y88832D01*
Y86166D01*
X87499Y85500D01*
X88832D01*
X89498Y86166D01*
Y88832D01*
X88832Y89499D01*
X90831D02*
X93497D01*
Y88832D01*
X90831Y86166D01*
Y85500D01*
X83500Y18999D02*
X84833D01*
X84166D01*
Y15000D01*
X83500D01*
X84833D01*
X88832Y18999D02*
X87499D01*
X86832Y18332D01*
Y15666D01*
X87499Y15000D01*
X88832D01*
X89498Y15666D01*
Y18332D01*
X88832Y18999D01*
X90831Y18332D02*
X91497Y18999D01*
X92830D01*
X93497Y18332D01*
Y15666D01*
X92830Y15000D01*
X91497D01*
X90831Y15666D01*
Y18332D01*
X39166Y21832D02*
X38499Y22499D01*
X37166D01*
X36500Y21832D01*
Y19166D01*
X37166Y18500D01*
X38499D01*
X39166Y19166D01*
Y20499D01*
X37833D01*
X40499Y18500D02*
Y22499D01*
X43165Y18500D01*
Y22499D01*
X44497D02*
Y18500D01*
X46497D01*
X47163Y19166D01*
Y21832D01*
X46497Y22499D01*
X44497D01*
X83500Y38999D02*
X84833D01*
X84166D01*
Y35000D01*
X83500D01*
X84833D01*
X88832Y38999D02*
X87499D01*
X86832Y38332D01*
Y35666D01*
X87499Y35000D01*
X88832D01*
X89498Y35666D01*
Y38332D01*
X88832Y38999D01*
X93497Y35000D02*
X90831D01*
X93497Y37666D01*
Y38332D01*
X92830Y38999D01*
X91497D01*
X90831Y38332D01*
X8498Y62999D02*
X5832D01*
Y60999D01*
X7165Y61666D01*
X7832D01*
X8498Y60999D01*
Y59666D01*
X7832Y59000D01*
X6499D01*
X5832Y59666D01*
X9831Y62999D02*
Y60333D01*
X11164Y59000D01*
X12497Y60333D01*
Y62999D01*
X83500Y78999D02*
X84833D01*
X84166D01*
Y75000D01*
X83500D01*
X84833D01*
X88832Y78999D02*
X87499D01*
X86832Y78332D01*
Y75666D01*
X87499Y75000D01*
X88832D01*
X89498Y75666D01*
Y78332D01*
X88832Y78999D01*
X93497D02*
X92164Y78332D01*
X90831Y76999D01*
Y75666D01*
X91497Y75000D01*
X92830D01*
X93497Y75666D01*
Y76333D01*
X92830Y76999D01*
X90831D01*
X36500Y42999D02*
X37833D01*
X37166D01*
Y39000D01*
X36500D01*
X37833D01*
X41832Y42999D02*
X40499D01*
X39832Y42332D01*
Y39666D01*
X40499Y39000D01*
X41832D01*
X42498Y39666D01*
Y42332D01*
X41832Y42999D01*
X43831Y42332D02*
X44497Y42999D01*
X45830D01*
X46497Y42332D01*
Y41666D01*
X45830Y40999D01*
X45164D01*
X45830D01*
X46497Y40333D01*
Y39666D01*
X45830Y39000D01*
X44497D01*
X43831Y39666D01*
X83500Y68999D02*
X84833D01*
X84166D01*
Y65000D01*
X83500D01*
X84833D01*
X88832Y68999D02*
X87499D01*
X86832Y68332D01*
Y65666D01*
X87499Y65000D01*
X88832D01*
X89498Y65666D01*
Y68332D01*
X88832Y68999D01*
X93497D02*
X90831D01*
Y66999D01*
X92164Y67666D01*
X92830D01*
X93497Y66999D01*
Y65666D01*
X92830Y65000D01*
X91497D01*
X90831Y65666D01*
X86666Y9339D02*
X84000D01*
Y7339D01*
X85333Y8006D01*
X85999D01*
X86666Y7339D01*
Y6006D01*
X85999Y5340D01*
X84666D01*
X84000Y6006D01*
X87999Y9339D02*
Y6673D01*
X89332Y5340D01*
X90664Y6673D01*
Y9339D01*
X83500Y48999D02*
X84833D01*
X84166D01*
Y45000D01*
X83500D01*
X84833D01*
X88832Y48999D02*
X87499D01*
X86832Y48332D01*
Y45666D01*
X87499Y45000D01*
X88832D01*
X89498Y45666D01*
Y48332D01*
X88832Y48999D01*
X90831Y48332D02*
X91497Y48999D01*
X92830D01*
X93497Y48332D01*
Y47666D01*
X92830Y46999D01*
X92164D01*
X92830D01*
X93497Y46333D01*
Y45666D01*
X92830Y45000D01*
X91497D01*
X90831Y45666D01*
X85666Y98889D02*
X84999Y99555D01*
X83666D01*
X83000Y98889D01*
Y96223D01*
X83666Y95557D01*
X84999D01*
X85666Y96223D01*
Y97556D01*
X84333D01*
X86999Y95557D02*
Y99555D01*
X89665Y95557D01*
Y99555D01*
X90997D02*
Y95557D01*
X92997D01*
X93663Y96223D01*
Y98889D01*
X92997Y99555D01*
X90997D01*
X2500Y42999D02*
X3833D01*
X3167D01*
Y39000D01*
X2500D01*
X3833D01*
X7832Y42999D02*
X6499D01*
X5832Y42332D01*
Y39666D01*
X6499Y39000D01*
X7832D01*
X8498Y39666D01*
Y42332D01*
X7832Y42999D01*
X11830Y39000D02*
Y42999D01*
X9831Y40999D01*
X12497D01*
D14*
X19093Y76000D02*
X15594D01*
Y77749D01*
X16177Y78333D01*
X17344D01*
X17927Y77749D01*
Y76000D01*
X15594Y81248D02*
Y80082D01*
X16177Y79499D01*
X18510D01*
X19093Y80082D01*
Y81248D01*
X18510Y81831D01*
X16177D01*
X15594Y81248D01*
Y82998D02*
X19093D01*
X17927Y84164D01*
X19093Y85330D01*
X15594D01*
Y88829D02*
Y86497D01*
X19093D01*
Y88829D01*
X17344Y86497D02*
Y87663D01*
X19093Y89995D02*
X15594D01*
Y91745D01*
X16177Y92328D01*
X17344D01*
X17927Y91745D01*
Y89995D01*
Y91162D02*
X19093Y92328D01*
X15594Y96993D02*
Y98159D01*
Y97576D01*
X19093D01*
Y96993D01*
Y98159D01*
Y99909D02*
X15594D01*
X19093Y102242D01*
X15594D01*
X21500Y93500D02*
Y97199D01*
X23349D01*
X23966Y96582D01*
Y95349D01*
X23349Y94733D01*
X21500D01*
X22733D02*
X23966Y93500D01*
X25199D02*
X26432D01*
X25815D01*
Y97199D01*
X25199Y96582D01*
X29000Y77500D02*
Y81499D01*
X30999D01*
X31666Y80832D01*
Y79499D01*
X30999Y78833D01*
X29000D01*
X32999Y81499D02*
Y77500D01*
X34332Y78833D01*
X35664Y77500D01*
Y81499D01*
X36997Y77500D02*
Y81499D01*
X38997D01*
X39663Y80832D01*
Y79499D01*
X38997Y78833D01*
X36997D01*
X38330D02*
X39663Y77500D01*
D15*
X46000Y96000D02*
Y99499D01*
X47749D01*
X48333Y98916D01*
Y97749D01*
X47749Y97166D01*
X46000D01*
X47166D02*
X48333Y96000D01*
X49499Y96583D02*
X50082Y96000D01*
X51248D01*
X51831Y96583D01*
Y98916D01*
X51248Y99499D01*
X50082D01*
X49499Y98916D01*
Y98333D01*
X50082Y97749D01*
X51831D01*
X46000Y86000D02*
Y89499D01*
X47749D01*
X48333Y88916D01*
Y87749D01*
X47749Y87166D01*
X46000D01*
X47166D02*
X48333Y86000D01*
X49499Y88916D02*
X50082Y89499D01*
X51248D01*
X51831Y88916D01*
Y88333D01*
X51248Y87749D01*
X51831Y87166D01*
Y86583D01*
X51248Y86000D01*
X50082D01*
X49499Y86583D01*
Y87166D01*
X50082Y87749D01*
X49499Y88333D01*
Y88916D01*
X50082Y87749D02*
X51248D01*
X46000Y76000D02*
Y79499D01*
X47749D01*
X48333Y78916D01*
Y77749D01*
X47749Y77166D01*
X46000D01*
X47166D02*
X48333Y76000D01*
X49499Y79499D02*
X51831D01*
Y78916D01*
X49499Y76583D01*
Y76000D01*
X46000Y67000D02*
Y70499D01*
X47749D01*
X48333Y69916D01*
Y68749D01*
X47749Y68166D01*
X46000D01*
X47166D02*
X48333Y67000D01*
X51831Y70499D02*
X50665Y69916D01*
X49499Y68749D01*
Y67583D01*
X50082Y67000D01*
X51248D01*
X51831Y67583D01*
Y68166D01*
X51248Y68749D01*
X49499D01*
X57000Y52000D02*
Y55499D01*
X58749D01*
X59333Y54916D01*
Y53749D01*
X58749Y53166D01*
X57000D01*
X58166D02*
X59333Y52000D01*
X62831Y55499D02*
X60499D01*
Y53749D01*
X61665Y54333D01*
X62248D01*
X62831Y53749D01*
Y52583D01*
X62248Y52000D01*
X61082D01*
X60499Y52583D01*
X52000Y33000D02*
X48501D01*
Y34749D01*
X49084Y35333D01*
X50251D01*
X50834Y34749D01*
Y33000D01*
Y34166D02*
X52000Y35333D01*
Y38248D02*
X48501D01*
X50251Y36499D01*
Y38831D01*
X52000Y22000D02*
X48501D01*
Y23749D01*
X49084Y24333D01*
X50251D01*
X50834Y23749D01*
Y22000D01*
Y23166D02*
X52000Y24333D01*
X49084Y25499D02*
X48501Y26082D01*
Y27248D01*
X49084Y27832D01*
X49667D01*
X50251Y27248D01*
Y26665D01*
Y27248D01*
X50834Y27832D01*
X51417D01*
X52000Y27248D01*
Y26082D01*
X51417Y25499D01*
X57000Y6000D02*
Y9499D01*
X58749D01*
X59333Y8916D01*
Y7749D01*
X58749Y7166D01*
X57000D01*
X58166D02*
X59333Y6000D01*
X62831D02*
X60499D01*
X62831Y8333D01*
Y8916D01*
X62248Y9499D01*
X61082D01*
X60499Y8916D01*
M02*
