M48
;Layer_Color=9474304
;FILE_FORMAT=2:5
INCH,LZ
;TYPE=PLATED
T1F00S00C0.02800
T2F00S00C0.03700
T3F00S00C0.03700
%
T01
X00235Y00855
T02
X0075Y0007
Y0017
Y0027
Y0037
Y0047
Y0057
Y0067
Y0077
Y0087
Y0097
X0009Y00955
Y00855
T03
X002Y00205
Y00305
Y00405
Y00505
Y00605
X003
Y00505
Y00405
Y00305
Y00205
M30
